<?xml version="1.0" standalone="no"?>
<!DOCTYPE svg PUBLIC "-//W3C//DTD SVG 1.1//EN" "http://www.w3.org/Graphics/SVG/1.1/DTD/svg11.dtd" >
<svg>
<metadata>
Created by FontForge 20090622 at Fri Apr  7 15:00:11 2017
 By deploy user
Part of the digitally encoded machine readable outline data for producing the Typefaces provided is copyrighted &#194;&#169; 2003 - 2006 Linotype GmbH, www.linotype.com. All rights reserved. This software is the property of Linotype GmbH, and may not be reproduced, modified, disclosed or transferred without the express written approval of Linotype GmbH. Copyright &#194;&#169; 1988, 1990, 1993 Adobe Systems Incorporated. All Rights Reserved. Helvetica is a trademark of Heidelberger Druckmaschinen AG, exclusively licensed through Linotype GmbH, and may be registered in certain jurisdictions. This typeface is original artwork of Linotype Design Studio. The design may be protected in certain jurisdictions.
</metadata>
<defs>
<font id="HelveticaNeueLTCom-BdCn" horiz-adv-x="480" >
  <font-face 
    font-family="HelveticaNeueLT Com 57 Cn"
    font-weight="700"
    font-stretch="normal"
    units-per-em="1000"
    panose-1="2 11 7 6 3 5 2 3 2 4"
    ascent="714"
    descent="-286"
    x-height="538"
    cap-height="714"
    bbox="-164 -253 1066 954"
    underline-thickness="50"
    underline-position="-50"
    unicode-range="U+0020-U+FB02"
  />
<missing-glyph horiz-adv-x="512" 
d="M222 117v67h56v-67h-56zM225 234l-2 17q0 55 13 81t46 59q32 31 41 47.5t9 35.5q0 36 -22.5 60.5t-53.5 24.5t-53.5 -22t-28.5 -73l-50 8q7 71 44 104t91 33q53 0 88.5 -36t35.5 -95q0 -32 -12.5 -58.5t-50.5 -61.5q-37 -33 -43 -52t-6 -72h-46zM462 50v617h-412v-617
h412zM512 718v-718h-512v718h512z" />
    <glyph glyph-name="napostrophe" unicode="&#x22;n" horiz-adv-x="530" 
d="M76 538h132v-63h2q22 40 57 58.5t80 18.5q66 0 101.5 -36t35.5 -117v-399h-138v371q0 42 -14 58.5t-45 16.5q-73 0 -73 -89v-357h-138v538zM143 832v-97q0 -34 -8.5 -54t-22.5 -31t-31.5 -15t-34.5 -6v36q17 5 26 15.5t10 33.5h-51v118h112z" />
    <glyph glyph-name="IJ" unicode="IJ" horiz-adv-x="719" 
d="M57 0v714h144v-714h-144zM675 714v-514q0 -114 -53 -164t-162 -50q-57 0 -93.5 17t-58 45.5t-29.5 66.5t-8 80v31h132v-22q0 -57 12.5 -84.5t51.5 -27.5t51.5 27.5t12.5 84.5v510h144z" />
    <glyph glyph-name="fi" unicode="fi" horiz-adv-x="537" 
d="M76 444h-70v94h70v61q0 36 10 61t28.5 40t45.5 21.5t60 6.5q36 0 74 -3v-98q-5 1 -14 1h-13q-29 0 -41 -10t-12 -33v-47h80v-94h-80v-444h-138v444zM349 722h138v-118h-138v118zM349 538h138v-538h-138v538z" />
    <glyph glyph-name="fl" unicode="fl" horiz-adv-x="537" 
d="M76 444h-70v94h70v61q0 36 10 61t28.5 40t45.5 21.5t60 6.5q36 0 74 -3v-98q-5 1 -14 1h-13q-29 0 -41 -10t-12 -33v-47h80v-94h-80v-444h-138v444zM349 714h138v-714h-138v714z" />
    <glyph glyph-name="ij" unicode="ij" 
d="M51 722h138v-118h-138v118zM51 538h138v-538h-138v538zM291 722h138v-118h-138v118zM291 538h138v-575q0 -34 -7.5 -60t-25.5 -43.5t-48.5 -26.5t-76.5 -9q-12 0 -26.5 0.5t-29.5 1.5v100q6 -2 11 -2h11q18 0 29 5t16.5 15.5t7 26.5t1.5 39v528z" />
    <glyph glyph-name=".notdef" horiz-adv-x="512" 
d="M222 117v67h56v-67h-56zM225 234l-2 17q0 55 13 81t46 59q32 31 41 47.5t9 35.5q0 36 -22.5 60.5t-53.5 24.5t-53.5 -22t-28.5 -73l-50 8q7 71 44 104t91 33q53 0 88.5 -36t35.5 -95q0 -32 -12.5 -58.5t-50.5 -61.5q-37 -33 -43 -52t-6 -72h-46zM462 50v617h-412v-617
h412zM512 718v-718h-512v718h512z" />
    <glyph glyph-name=".null" horiz-adv-x="500" 
 />
    <glyph glyph-name="nonmarkingreturn" horiz-adv-x="0" 
 />
    <glyph glyph-name="space" unicode=" " horiz-adv-x="240" 
 />
    <glyph glyph-name="exclam" unicode="!" horiz-adv-x="296" 
d="M217 132v-132h-138v132h138zM98 199l-19 283v232h138v-232l-19 -283h-100z" />
    <glyph glyph-name="quotedbl" unicode="&#x22;" horiz-adv-x="463" 
d="M72 714h124v-321h-124v321zM267 714h124v-321h-124v321z" />
    <glyph glyph-name="numbersign" unicode="#" 
d="M184 286h97l16 122h-98zM0 286h87l16 122h-73v112h86l22 174h96l-21 -174h97l22 174h97l-22 -174h73v-112h-86l-16 -122h73v-112h-86l-22 -174h-97l22 174h-98l-21 -174h-97l22 174h-74v112z" />
    <glyph glyph-name="dollar" unicode="$" 
d="M205 -14q-62 5 -100.5 23t-59.5 45.5t-28.5 62.5t-7.5 74v21h138q0 -21 1.5 -40.5t7.5 -35.5t17.5 -27.5t31.5 -16.5v202l-50 18q-73 26 -105 74.5t-32 117.5q0 93 48.5 143.5t138.5 60.5v69h64v-69q55 -5 91 -22.5t57 -43.5t29 -58t8 -65v-14h-138q-1 38 -11 63.5
t-36 33.5v-189l79 -32q28 -12 50.5 -26t38.5 -34.5t25 -49.5t9 -71q0 -108 -51.5 -157.5t-150.5 -56.5v-87h-64v87zM205 602q-49 -14 -49 -76q0 -56 49 -84v160zM269 92q31 7 44.5 29.5t13.5 50.5q0 38 -14.5 60t-43.5 37v-177z" />
    <glyph glyph-name="percent" unicode="%" horiz-adv-x="778" 
d="M546 725h89l-406 -756h-89zM133 521q0 -60 7 -89.5t37 -29.5t37 29.5t7 89.5q0 54 -7 82.5t-37 28.5t-37 -28.5t-7 -82.5zM27 517q0 48 6 84t22.5 60t45.5 35.5t76 11.5q46 0 75.5 -11.5t46 -35.5t22.5 -60t6 -84t-6 -84t-22.5 -60t-46 -35.5t-75.5 -11.5q-47 0 -76 11.5
t-45.5 35.5t-22.5 60t-6 84zM451 177q0 48 6 84t22.5 60t45.5 35.5t76 11.5q46 0 75.5 -11.5t46 -35.5t22.5 -60t6 -84t-6 -84t-22.5 -60t-46 -35.5t-75.5 -11.5q-47 0 -76 11.5t-45.5 35.5t-22.5 60t-6 84zM557 181q0 -60 7 -89.5t37 -29.5t37 29.5t7 89.5q0 54 -7 82.5
t-37 28.5t-37 -28.5t-7 -82.5z" />
    <glyph glyph-name="ampersand" unicode="&#x26;" horiz-adv-x="593" 
d="M426 235q11 23 18 54t7 54h124q0 -58 -20.5 -111.5t-52.5 -99.5l94 -132h-153l-40 55q-27 -32 -72.5 -50.5t-99.5 -18.5q-68 0 -110.5 21t-66.5 52t-33 67t-9 66q0 63 38.5 113.5t105.5 92.5l-25 37q-15 22 -24.5 39t-14.5 32t-7 29t-2 29q0 34 13.5 62t37.5 47.5
t57.5 30t73.5 10.5q46 0 79.5 -11.5t55.5 -32t32.5 -47.5t10.5 -58q0 -54 -30.5 -97t-93.5 -88zM223 313q-42 -32 -57.5 -60t-15.5 -61q0 -17 6.5 -33.5t19 -30t31.5 -22t43 -8.5q57 0 93 45zM201 568q0 -30 36 -78l17 -24l26 22q24 20 34.5 39.5t10.5 38.5q0 29 -17.5 44.5
t-45.5 15.5q-26 0 -43.5 -15t-17.5 -43z" />
    <glyph glyph-name="quotesingle" unicode="'" horiz-adv-x="260" 
d="M68 714h124v-321h-124v321z" />
    <glyph glyph-name="parenleft" unicode="(" horiz-adv-x="296" 
d="M296 714q-31 -57 -53 -110.5t-35.5 -107.5t-19.5 -110.5t-6 -120.5t6 -120.5t19.5 -110.5t35.5 -107.5t53 -110.5h-106q-75 118 -107.5 230.5t-32.5 218.5t32.5 218.5t107.5 230.5h106z" />
    <glyph glyph-name="parenright" unicode=")" horiz-adv-x="296" 
d="M106 714q75 -118 107.5 -230.5t32.5 -218.5t-32.5 -218.5t-107.5 -230.5h-106q31 57 53 110.5t35.5 107.5t19.5 110.5t6 120.5t-6 120.5t-19.5 110.5t-35.5 107.5t-53 110.5h106z" />
    <glyph glyph-name="asterisk" unicode="*" horiz-adv-x="390" 
d="M236 714v-128l122 40l25 -78l-122 -40l76 -104l-67 -48l-75 104l-75 -104l-67 48l76 104l-122 40l25 78l122 -40v128h82z" />
    <glyph glyph-name="plus" unicode="+" horiz-adv-x="600" 
d="M238 191h-191v124h191v191h124v-191h191v-124h-191v-191h-124v191z" />
    <glyph glyph-name="comma" unicode="," horiz-adv-x="240" 
d="M186 156v-130q0 -40 -5.5 -73.5t-20.5 -58t-40.5 -40t-65.5 -19.5v70q26 5 39 28t13 51v16h-52v156h132z" />
    <glyph glyph-name="hyphen" unicode="-" horiz-adv-x="370" 
d="M326 348v-118h-282v118h282z" />
    <glyph glyph-name="period" unicode="." horiz-adv-x="240" 
d="M186 156v-156h-132v156h132z" />
    <glyph glyph-name="slash" unicode="/" horiz-adv-x="332" 
d="M223 728h112l-226 -742h-112z" />
    <glyph glyph-name="zero" unicode="0" 
d="M18 330q0 73 5 141.5t27 121t66.5 84t123.5 31.5q64 0 107 -18.5t68.5 -59.5t36 -106.5t10.5 -159.5q0 -74 -5 -142t-27 -120.5t-66.5 -84t-123.5 -31.5q-65 0 -107.5 18.5t-68 59.5t-36 106.5t-10.5 159.5zM162 299q0 -67 3.5 -109.5t12.5 -67t24 -33.5t38 -9
q24 0 39 11.5t23.5 39t12 73.5t3.5 114v77q0 67 -3.5 109.5t-12.5 67t-24 33.5t-38 9q-24 0 -39 -11.5t-23.5 -39t-12 -73.5t-3.5 -114v-77z" />
    <glyph glyph-name="one" unicode="1" 
d="M182 0v500h-141v94h13q72 0 113.5 27t52.5 87h106v-708h-144z" />
    <glyph glyph-name="two" unicode="2" 
d="M454 0h-436q0 47 9.5 88t29 78t49 72.5t68.5 71.5l58 54q24 21 38.5 39t22.5 36t10.5 39t2.5 48q0 88 -70 88q-27 0 -42.5 -11t-24 -30t-11 -44t-2.5 -53h-138v27q0 99 53 152t167 53q108 0 160 -50t52 -143q0 -35 -6 -64t-19 -56t-34 -52.5t-51 -52.5l-80 -74
q-32 -29 -50 -56.5t-23 -47.5h267v-112z" />
    <glyph glyph-name="three" unicode="3" 
d="M158 207q1 -62 16.5 -94.5t62.5 -32.5q26 0 41.5 9t24 24.5t11 36.5t2.5 44q0 24 -3.5 45.5t-13.5 38.5t-28 27t-48 10h-48v94h47q22 0 38 9.5t25.5 25t14 35.5t4.5 42q0 51 -17 72t-52 21q-23 0 -37.5 -8.5t-22.5 -24t-10.5 -36.5t-2.5 -46h-132q0 106 53 157.5
t155 51.5q97 0 150.5 -44t53.5 -138q0 -64 -28.5 -104.5t-79.5 -51.5v-2q69 -11 97.5 -55.5t28.5 -111.5q0 -36 -9 -74t-35 -69.5t-72 -51.5t-119 -20q-103 0 -154 57.5t-51 160.5v3h138z" />
    <glyph glyph-name="four" unicode="4" 
d="M14 265l235 443h149v-449h68v-112h-68v-147h-132v147h-252v118zM266 528h-2l-138 -269h140v269z" />
    <glyph glyph-name="five" unicode="5" 
d="M425 582h-261l-15 -161h2q20 28 52 40.5t78 12.5q51 0 84.5 -19.5t53 -51.5t27.5 -72.5t8 -82.5q0 -59 -10 -107t-35.5 -82.5t-69.5 -53.5t-112 -19t-109 19.5t-63 49t-29.5 64t-7.5 64.5v19h138q0 -18 2 -38t9.5 -37.5t21.5 -29t37 -11.5q45 0 64.5 34.5t19.5 103.5
q0 44 -4 73t-13.5 46t-25.5 24t-40 7q-31 0 -47.5 -17.5t-20.5 -47.5h-129l26 385h369v-112z" />
    <glyph glyph-name="six" unicode="6" 
d="M165 220q0 -30 3 -56t11.5 -44.5t24 -29t40.5 -10.5q26 0 41.5 10.5t23.5 29.5t10.5 44.5t2.5 55.5q0 72 -18 103t-60 31q-43 0 -61 -31t-18 -103zM311 528q0 42 -14.5 64t-50.5 22q-29 0 -46 -13.5t-26.5 -37.5t-12.5 -57t-3 -72v-35h2q18 28 51.5 44.5t81.5 16.5
q47 0 80 -16.5t53.5 -46t30 -70t9.5 -88.5q0 -123 -54.5 -188t-174.5 -65q-74 0 -118.5 27.5t-67.5 73t-30 105.5t-7 125q0 75 4.5 145.5t27 125t70.5 87.5t136 33q38 0 73.5 -9t62.5 -30t43.5 -55.5t17.5 -85.5h-138z" />
    <glyph glyph-name="seven" unicode="7" 
d="M458 694v-110q-44 -62 -78.5 -133t-60.5 -146t-43 -152.5t-26 -152.5h-151q8 64 24 134.5t42.5 143.5t64.5 147t90 145h-298v124h436z" />
    <glyph glyph-name="eight" unicode="8" 
d="M158 202q0 -26 3.5 -48t13 -38.5t25.5 -26t40 -9.5t40 9.5t25.5 26t13 38.5t3.5 48q0 25 -3.5 47.5t-13 39t-25.5 26t-40 9.5t-40 -9.5t-25.5 -26t-13 -39t-3.5 -47.5zM170 517q0 -51 19 -75t51 -24t51 24t19 75q0 97 -70 97t-70 -97zM14 200q0 67 30 115t90 60v2
q-29 7 -48.5 22t-31.5 34t-17 40t-5 40q0 104 55.5 149.5t152.5 45.5t152.5 -45.5t55.5 -149.5q0 -19 -5.5 -40t-17.5 -40t-31.5 -34t-47.5 -22v-2q60 -12 90 -60t30 -115q0 -30 -7.5 -67.5t-31.5 -70t-68.5 -54.5t-118.5 -22t-118.5 22t-68.5 54.5t-31.5 70t-7.5 67.5z" />
    <glyph glyph-name="nine" unicode="9" 
d="M158 474q0 -72 18 -103t60 -31q43 0 61 31t18 103q0 30 -3 56t-11.5 44.5t-24 29t-40.5 10.5q-26 0 -41.5 -10.5t-23.5 -29.5t-10.5 -44.5t-2.5 -55.5zM169 165q0 -40 14.5 -62.5t50.5 -22.5q28 0 45.5 13.5t27 37.5t12.5 57t3 72v34h-2q-18 -27 -51.5 -43.5t-81.5 -16.5
q-47 0 -80 16.5t-53.5 46t-30 70t-9.5 88.5q0 123 54.5 188t174.5 65q74 0 118 -27.5t67.5 -73t30.5 -105.5t7 -125q0 -75 -4.5 -145.5t-27 -125t-71 -87.5t-135.5 -33q-38 0 -73.5 9t-62.5 29.5t-43.5 55t-17.5 85.5h138z" />
    <glyph glyph-name="colon" unicode=":" horiz-adv-x="240" 
d="M54 521h132v-156h-132v156zM54 156h132v-156h-132v156z" />
    <glyph glyph-name="semicolon" unicode=";" horiz-adv-x="240" 
d="M186 521v-156h-132v156h132zM186 156v-130q0 -40 -5.5 -73.5t-20.5 -58t-40.5 -40t-65.5 -19.5v70q26 5 39 28t13 51v16h-52v156h132z" />
    <glyph glyph-name="less" unicode="&#x3c;" horiz-adv-x="600" 
d="M47 306l506 208v-124l-338 -137l338 -137v-124l-506 208v106z" />
    <glyph glyph-name="equal" unicode="=" horiz-adv-x="600" 
d="M47 206h506v-124h-506v124zM47 424h506v-124h-506v124z" />
    <glyph glyph-name="greater" unicode="&#x3e;" horiz-adv-x="600" 
d="M47 116l338 137l-338 137v124l506 -208v-106l-506 -208v124z" />
    <glyph glyph-name="question" unicode="?" horiz-adv-x="481" 
d="M300 132v-132h-138v132h138zM36 493v23q0 45 12.5 83t37 65t61.5 42.5t87 15.5q106 0 158.5 -52.5t52.5 -140.5q0 -42 -13.5 -78t-49.5 -78l-40 -45q-26 -29 -37.5 -53t-11.5 -62v-15h-124v39q0 50 14 84.5t48 72.5l38 43q21 23 29.5 49.5t8.5 56.5q0 38 -17 61.5
t-51 23.5q-38 0 -54.5 -30.5t-16.5 -79.5v-25h-132z" />
    <glyph glyph-name="at" unicode="@" horiz-adv-x="800" 
d="M535 541h88l-58 -250q-6 -29 -6 -41q0 -20 20 -20q15 0 33 12.5t33.5 35t26.5 55t11 71.5q0 50 -22 92t-59 73t-85 48t-100 17q-59 0 -109.5 -23t-87.5 -62t-58 -89t-21 -104q0 -57 23 -107.5t61.5 -88t90 -59t108.5 -21.5q69 0 122 19.5t95 44.5h89q-54 -75 -135 -116.5
t-195 -41.5q-77 0 -144.5 29t-118 79.5t-79.5 118t-29 144.5t29 144.5t79.5 118t118 79.5t144.5 29q75 0 142.5 -21.5t118 -61.5t80.5 -95.5t30 -124.5q0 -53 -14 -94.5t-36.5 -73.5t-50.5 -54.5t-56 -36.5t-53 -20.5t-41 -6.5q-60 0 -65 53h-2q-20 -21 -50 -37t-70 -16
q-27 0 -53 11.5t-46.5 33.5t-33.5 53.5t-13 71.5q0 46 15 90t43 78.5t67.5 56t88.5 21.5q38 0 68.5 -16t52.5 -51zM299 326q0 -33 19.5 -57t51.5 -24q25 0 46.5 11.5t37 30t24 41t8.5 45.5q0 32 -22 54t-53 22q-24 0 -44.5 -11.5t-35.5 -29.5t-23.5 -39.5t-8.5 -42.5z" />
    <glyph glyph-name="A" unicode="A" horiz-adv-x="556" 
d="M208 269h140l-69 321h-2zM189 714h178l189 -714h-150l-33 151h-190l-33 -151h-150z" />
    <glyph glyph-name="B" unicode="B" horiz-adv-x="556" 
d="M194 106h56q52 0 84 23t32 85q0 31 -8.5 51.5t-23 33t-34.5 17.5t-44 5h-62v-215zM194 421h41q60 0 87.5 21.5t27.5 72.5t-25 72t-79 21h-52v-187zM50 714h241q44 0 81.5 -9t64.5 -30t42 -56t15 -86q0 -58 -27 -99.5t-81 -56.5v-2q60 -8 95 -51t35 -115q0 -42 -11 -80
t-37.5 -66.5t-69 -45.5t-105.5 -17h-243v714z" />
    <glyph glyph-name="C" unicode="C" horiz-adv-x="537" 
d="M355 473q0 78 -18.5 113.5t-67.5 35.5q-27 0 -44.5 -14.5t-27.5 -47t-14 -85t-4 -128.5q0 -81 5.5 -131t17 -77.5t29 -37t40.5 -9.5q19 0 35.5 6.5t28.5 26t19 55t7 93.5h144q0 -58 -9 -110t-33.5 -91.5t-69 -62.5t-115.5 -23q-81 0 -129 27.5t-73.5 76.5t-33 117.5
t-7.5 149.5t7.5 149.5t33 117.5t73.5 76.5t129 27.5q77 0 121.5 -25t66.5 -63.5t27.5 -83t5.5 -83.5h-144z" />
    <glyph glyph-name="D" unicode="D" horiz-adv-x="574" 
d="M201 106h64q37 0 60.5 13t37 43t18 79t4.5 122q0 61 -4 106.5t-16.5 76.5t-37 46.5t-65.5 15.5h-61v-502zM57 714h236q75 0 121 -24.5t71.5 -70t34.5 -109.5t9 -143q0 -95 -11.5 -164t-39.5 -114t-75 -67t-119 -22h-227v714z" />
    <glyph glyph-name="E" unicode="E" horiz-adv-x="481" 
d="M449 714v-118h-255v-168h240v-118h-240v-192h265v-118h-409v714h399z" />
    <glyph glyph-name="F" unicode="F" horiz-adv-x="463" 
d="M50 714h399v-118h-255v-168h240v-118h-240v-310h-144v714z" />
    <glyph glyph-name="G" unicode="G" horiz-adv-x="556" 
d="M367 502q0 19 -4.5 40.5t-14.5 39t-25.5 29t-37.5 11.5q-52 0 -75 -58t-23 -192q0 -65 4 -116.5t14.5 -88t30 -56t50.5 -19.5q13 0 28.5 7t29 21t22.5 35.5t9 50.5v73h-95v106h233v-385h-106v66h-2q-26 -42 -62.5 -61t-87.5 -19q-66 0 -107.5 24.5t-65 72.5t-31.5 118.5
t-8 163.5q0 90 11.5 158t39.5 113.5t74 68.5t115 23q118 0 170 -58.5t52 -167.5h-138z" />
    <glyph glyph-name="H" unicode="H" horiz-adv-x="556" 
d="M50 714h144v-273h168v273h144v-714h-144v317h-168v-317h-144v714z" />
    <glyph glyph-name="I" unicode="I" horiz-adv-x="258" 
d="M57 0v714h144v-714h-144z" />
    <glyph glyph-name="J" unicode="J" horiz-adv-x="463" 
d="M419 714v-514q0 -114 -53 -164t-162 -50q-57 0 -93.5 17t-58 45.5t-29.5 66.5t-8 80v31h132v-22q0 -57 12.5 -84.5t51.5 -27.5t51.5 27.5t12.5 84.5v510h144z" />
    <glyph glyph-name="K" unicode="K" horiz-adv-x="537" 
d="M194 714v-286h2l182 286h156l-194 -306l216 -408h-162l-147 293l-53 -81v-212h-144v714h144z" />
    <glyph glyph-name="L" unicode="L" horiz-adv-x="463" 
d="M50 0v714h144v-596h255v-118h-399z" />
    <glyph glyph-name="M" unicode="M" horiz-adv-x="740" 
d="M53 714h214l102 -504h2l103 504h213v-714h-132v570h-2l-127 -570h-112l-127 570h-2v-570h-132v714z" />
    <glyph glyph-name="N" unicode="N" horiz-adv-x="574" 
d="M216 714l174 -489h2v489h132v-714h-164l-176 500h-2v-500h-132v714h166z" />
    <glyph glyph-name="O" unicode="O" horiz-adv-x="556" 
d="M35 357q0 81 7.5 149.5t33 117.5t73.5 76.5t129 27.5t129 -27.5t73.5 -76.5t33 -117.5t7.5 -149.5t-7.5 -149.5t-33 -117.5t-73.5 -76.5t-129 -27.5t-129 27.5t-73.5 76.5t-33 117.5t-7.5 149.5zM179 357q0 -72 3.5 -122.5t14 -82t30 -46t51.5 -14.5t51.5 14.5t30 46
t14 82t3.5 122.5t-3.5 122t-14 82t-30 46.5t-51.5 14.5t-51.5 -14.5t-30 -46.5t-14 -82t-3.5 -122z" />
    <glyph glyph-name="P" unicode="P" horiz-adv-x="519" 
d="M194 391h64q43 0 69.5 26t26.5 81q0 54 -23 82t-77 28h-60v-217zM50 714h252q55 0 92.5 -18.5t60.5 -48.5t33 -68.5t10 -78.5q0 -56 -16.5 -96.5t-46 -66.5t-71.5 -39t-93 -13h-77v-285h-144v714z" />
    <glyph glyph-name="Q" unicode="Q" horiz-adv-x="556" 
d="M179 357q0 -72 3.5 -122.5t14 -82t30 -46t51.5 -14.5t51.5 14.5t30 46t14 82t3.5 122.5t-3.5 122t-14 82t-30 46.5t-51.5 14.5t-51.5 -14.5t-30 -46.5t-14 -82t-3.5 -122zM458 -88l-85 88q-23 -8 -44 -11q-23 -3 -51 -3q-81 0 -129 27.5t-73.5 76.5t-33 117.5t-7.5 149.5
t7.5 149.5t33 117.5t73.5 76.5t129 27.5t129 -27.5t73.5 -76.5t33 -117.5t7.5 -149.5q0 -91 -10 -165t-45 -125l77 -78z" />
    <glyph glyph-name="R" unicode="R" horiz-adv-x="556" 
d="M50 714h266q90 0 140 -45.5t50 -138.5q0 -72 -29 -117.5t-90 -58.5v-2q37 -5 59 -18.5t34 -39t16.5 -64.5t5.5 -96t6.5 -87t25.5 -41v-6h-156q-11 15 -14 34.5t-4 40.5l-4 137q-2 42 -21 66t-64 24h-77v-302h-144v714zM194 402h60q52 0 80 24.5t28 82.5q0 99 -100 99h-68
v-206z" />
    <glyph glyph-name="S" unicode="S" horiz-adv-x="519" 
d="M166 223v-21q0 -25 4 -45.5t15 -34.5t29 -22t47 -8q33 0 59.5 21.5t26.5 66.5q0 24 -6.5 41.5t-21.5 31.5t-39.5 25.5t-60.5 23.5q-48 16 -83 35t-58.5 44.5t-34.5 59t-11 77.5q0 106 59 158t162 52q48 0 88.5 -10.5t70 -34t46 -60t16.5 -87.5v-20h-138q0 51 -18 78.5
t-60 27.5q-24 0 -40 -7t-25.5 -18.5t-13 -26.5t-3.5 -31q0 -33 14 -55.5t60 -41.5l111 -48q40 -18 66.5 -37.5t42 -42t21.5 -49.5t6 -60q0 -113 -65.5 -166t-182.5 -53q-122 0 -174.5 54.5t-52.5 153.5v29h144z" />
    <glyph glyph-name="T" unicode="T" 
d="M468 714v-118h-156v-596h-144v596h-156v118h456z" />
    <glyph glyph-name="U" unicode="U" horiz-adv-x="538" 
d="M185 714v-498q0 -27 3.5 -49.5t13 -39t25.5 -26t42 -9.5q25 0 41.5 9.5t26 26t13 39t3.5 49.5v498h144v-498q0 -68 -19 -112.5t-51 -70.5t-73 -36.5t-85 -10.5t-85 9t-73 34.5t-51 70t-19 116.5v498h144z" />
    <glyph glyph-name="V" unicode="V" horiz-adv-x="519" 
d="M157 714l101 -528h3l106 528h149l-164 -714h-185l-164 714h154z" />
    <glyph glyph-name="W" unicode="W" horiz-adv-x="760" 
d="M8 714h138l79 -528h2l84 528h138l84 -528h2l79 528h138l-130 -714h-161l-80 518h-2l-80 -518h-161z" />
    <glyph glyph-name="X" unicode="X" horiz-adv-x="537" 
d="M20 714h159l92 -231l91 231h157l-166 -353l178 -361h-162l-103 242l-102 -242h-158l178 361z" />
    <glyph glyph-name="Y" unicode="Y" horiz-adv-x="520" 
d="M165 714l94 -276h2l100 276h156l-185 -433v-281h-144v281l-185 433h162z" />
    <glyph glyph-name="Z" unicode="Z" horiz-adv-x="481" 
d="M24 105l263 491h-245v118h411v-109l-267 -487h271v-118h-433v105z" />
    <glyph glyph-name="bracketleft" unicode="[" horiz-adv-x="315" 
d="M80 714h229v-100h-105v-698h105v-100h-229v898z" />
    <glyph glyph-name="backslash" unicode="\" horiz-adv-x="332" 
d="M-3 728h112l226 -742h-112z" />
    <glyph glyph-name="bracketright" unicode="]" horiz-adv-x="315" 
d="M6 -84h105v698h-105v100h229v-898h-229v100z" />
    <glyph glyph-name="asciicircum" unicode="^" horiz-adv-x="600" 
d="M56 309l188 385h112l188 -385h-124l-120 247l-120 -247h-124z" />
    <glyph glyph-name="underscore" unicode="_" horiz-adv-x="500" 
d="M0 -125v50h500v-50h-500z" />
    <glyph glyph-name="grave" unicode="`" horiz-adv-x="222" 
d="M82 602l-98 144h138l54 -144h-94z" />
    <glyph glyph-name="a" unicode="a" horiz-adv-x="481" 
d="M45 373v13q0 46 15 78t40.5 51.5t60 28t73.5 8.5q61 0 99.5 -12t59.5 -34t28.5 -52.5t7.5 -66.5v-283q0 -38 3.5 -59t13.5 -45h-132q-7 13 -10.5 27.5t-6.5 28.5h-2q-24 -42 -55.5 -56t-81.5 -14q-36 0 -61 14t-40 36t-22 49.5t-7 54.5q0 38 8 65.5t24.5 47t42 32.5
t61.5 23l78 21q31 8 43 22t12 41q0 31 -14.5 48.5t-49.5 17.5q-32 0 -48 -19t-16 -51v-15h-124zM297 269q-14 -11 -30 -17.5t-29 -9.5q-42 -9 -60 -30t-18 -57q0 -31 12 -53t40 -22q14 0 29 4.5t27.5 14.5t20.5 25.5t8 38.5v106z" />
    <glyph glyph-name="b" unicode="b" horiz-adv-x="500" 
d="M46 714h138v-226h2q22 32 49.5 48t66.5 16q85 0 125 -66.5t40 -216.5t-40 -216.5t-125 -66.5q-42 0 -70.5 16.5t-51.5 54.5h-2v-57h-132v714zM184 269q0 -88 13.5 -132.5t59.5 -44.5q45 0 58.5 44.5t13.5 132.5t-13.5 132.5t-58.5 44.5q-46 0 -59.5 -44.5t-13.5 -132.5z
" />
    <glyph glyph-name="c" unicode="c" horiz-adv-x="463" 
d="M305 344q0 19 -2.5 38.5t-9 35t-19 25t-31.5 9.5q-26 0 -41.5 -11.5t-23.5 -34t-11 -57.5t-3 -81q0 -50 3 -85.5t11 -58.5t22.5 -33.5t37.5 -10.5q35 0 51 30t16 96h132q0 -106 -47.5 -163t-157.5 -57q-52 0 -90.5 14t-64 46.5t-38.5 87t-13 135.5q0 83 16 137.5t45 87
t69 45.5t88 13q96 0 144.5 -56t48.5 -152h-132z" />
    <glyph glyph-name="d" unicode="d" horiz-adv-x="500" 
d="M322 57h-2q-23 -38 -51.5 -54.5t-70.5 -16.5q-85 0 -125 66.5t-40 216.5t40 216.5t125 66.5q39 0 66.5 -16t49.5 -48h2v226h138v-714h-132v57zM171 269q0 -88 13.5 -132.5t58.5 -44.5q46 0 59.5 44.5t13.5 132.5t-13.5 132.5t-59.5 44.5q-45 0 -58.5 -44.5t-13.5 -132.5z
" />
    <glyph glyph-name="e" unicode="e" horiz-adv-x="463" 
d="M164 248v-43q0 -24 3.5 -46.5t11.5 -40t21 -28t32 -10.5q35 0 51 25t22 76h124q-4 -94 -50 -144.5t-145 -50.5q-75 0 -117 26t-62 67.5t-24.5 93t-4.5 101.5q0 54 7.5 104t30 89t64.5 62t112 23q60 0 98.5 -19.5t60.5 -55t30 -86t8 -112.5v-31h-273zM305 330
q-1 31 -4 54.5t-10.5 40t-21 25t-34.5 8.5t-34.5 -9.5t-21.5 -25t-11.5 -34.5t-3.5 -38v-21h141z" />
    <glyph glyph-name="f" unicode="f" horiz-adv-x="296" 
d="M76 444h-70v94h70v61q0 36 10 61t28.5 40t45.5 21.5t60 6.5q36 0 74 -3v-98q-5 1 -14 1h-13q-29 0 -41 -10t-12 -33v-47h80v-94h-80v-444h-138v444z" />
    <glyph glyph-name="g" unicode="g" horiz-adv-x="500" 
d="M173 252q0 -28 2.5 -53t10 -44.5t21 -31t35.5 -11.5t36.5 11.5t23 31.5t12 48.5t3.5 62.5q0 98 -15.5 139t-56.5 41q-23 0 -37 -10t-22 -32.5t-10.5 -60t-2.5 -91.5zM449 538v-511q0 -108 -51.5 -159.5t-172.5 -51.5q-88 0 -135.5 37.5t-47.5 106.5h132q0 -26 21 -41
q10 -7 21.5 -11t24.5 -4q42 0 59 27.5t17 69.5v71h-2q-21 -30 -51.5 -48t-63.5 -18q-82 0 -123.5 62.5t-41.5 209.5q0 47 5.5 96t23 88.5t51 64.5t89.5 25q29 0 60 -16t51 -58h2v60h132z" />
    <glyph glyph-name="h" unicode="h" horiz-adv-x="500" 
d="M46 714h138v-231h2q40 69 131 69q66 0 101.5 -36t35.5 -117v-399h-138v371q0 42 -14 58.5t-45 16.5q-73 0 -73 -89v-357h-138v714z" />
    <glyph glyph-name="i" unicode="i" horiz-adv-x="240" 
d="M51 722h138v-118h-138v118zM51 538h138v-538h-138v538z" />
    <glyph glyph-name="j" unicode="j" horiz-adv-x="240" 
d="M51 722h138v-118h-138v118zM51 538h138v-575q0 -34 -7.5 -60t-25.5 -43.5t-48.5 -26.5t-76.5 -9q-12 0 -26.5 0.5t-29.5 1.5v100q6 -2 11 -2h11q18 0 29 5t16.5 15.5t7 26.5t1.5 39v528z" />
    <glyph glyph-name="k" unicode="k" horiz-adv-x="500" 
d="M189 714v-377h2l139 201h152l-155 -212l178 -326h-152l-115 221l-49 -64v-157h-138v714h138z" />
    <glyph glyph-name="l" unicode="l" horiz-adv-x="240" 
d="M51 714h138v-714h-138v714z" />
    <glyph glyph-name="m" unicode="m" horiz-adv-x="758" 
d="M46 538h132v-55h2q26 37 58.5 53t77.5 16q48 0 80.5 -22t43.5 -64h2q16 43 51.5 64.5t84.5 21.5q69 0 101.5 -41.5t32.5 -119.5v-391h-138v376q0 34 -12.5 52t-41.5 18q-33 0 -52.5 -22t-19.5 -70v-354h-138v376q0 34 -12.5 52t-41.5 18q-33 0 -52.5 -22t-19.5 -70v-354
h-138v538z" />
    <glyph glyph-name="n" unicode="n" horiz-adv-x="500" 
d="M46 538h132v-63h2q22 40 57 58.5t80 18.5q66 0 101.5 -36t35.5 -117v-399h-138v371q0 42 -14 58.5t-45 16.5q-73 0 -73 -89v-357h-138v538z" />
    <glyph glyph-name="o" unicode="o" 
d="M28 269q0 69 11 122t36 88.5t65.5 54t99.5 18.5q62 1 103 -16.5t65 -53.5t34 -89.5t10 -123.5q0 -69 -11 -122t-36 -88.5t-65.5 -54t-99.5 -18.5q-62 -1 -103 16.5t-65 53.5t-34 89t-10 124zM166 269q0 -41 2 -76t9.5 -60t22 -39t40.5 -14q42 0 58 44t16 145t-16 145
t-58 44q-26 0 -40.5 -14t-22 -39t-9.5 -60t-2 -76z" />
    <glyph glyph-name="p" unicode="p" horiz-adv-x="500" 
d="M46 538h132v-57h2q23 38 51.5 54.5t70.5 16.5q85 0 125 -66.5t40 -216.5t-40 -216.5t-125 -66.5q-39 0 -66.5 16t-49.5 48h-2v-226h-138v714zM184 269q0 -88 13.5 -132.5t59.5 -44.5q45 0 58.5 44.5t13.5 132.5t-13.5 132.5t-58.5 44.5q-46 0 -59.5 -44.5t-13.5 -132.5z
" />
    <glyph glyph-name="q" unicode="q" horiz-adv-x="500" 
d="M316 50h-2q-22 -32 -49.5 -48t-66.5 -16q-85 0 -125 66.5t-40 216.5t40 216.5t125 66.5q42 0 70.5 -16.5t51.5 -54.5h2v57h132v-714h-138v226zM316 269q0 88 -13.5 132.5t-59.5 44.5q-45 0 -58.5 -44.5t-13.5 -132.5t13.5 -132.5t58.5 -44.5q46 0 59.5 44.5t13.5 132.5z
" />
    <glyph glyph-name="r" unicode="r" horiz-adv-x="333" 
d="M46 538h132v-72h2q21 39 51 62.5t73 23.5q6 0 12.5 -0.5t12.5 -1.5v-132q-11 1 -21.5 1.5t-21.5 0.5q-18 0 -36 -5t-33 -16.5t-24 -30t-9 -45.5v-323h-138v538z" />
    <glyph glyph-name="s" unicode="s" horiz-adv-x="444" 
d="M147 176v-18q0 -35 18.5 -56.5t53.5 -21.5q32 0 51 16t19 48q0 26 -15 39.5t-35 21.5l-97 35q-57 20 -86 56.5t-29 93.5q0 33 11 62.5t35 51.5t61.5 35t90.5 13q94 0 139 -40t45 -113v-22h-124q0 42 -13.5 61.5t-47.5 19.5q-26 0 -45.5 -14.5t-19.5 -43.5q0 -20 12.5 -36
t47.5 -27l83 -28q65 -22 92 -57.5t27 -96.5q0 -42 -15 -74t-41.5 -53t-63.5 -31.5t-80 -10.5q-59 0 -97 12t-60.5 34.5t-31.5 54t-9 70.5v19h124z" />
    <glyph glyph-name="t" unicode="t" horiz-adv-x="296" 
d="M76 692h138v-154h80v-94h-80v-291q0 -32 9.5 -45.5t39.5 -13.5q8 0 16 0.5t15 1.5v-96l-44.5 -4t-45.5 -2q-41 0 -66 7t-38.5 23.5t-18.5 43.5t-5 68v308h-70v94h70v154z" />
    <glyph glyph-name="u" unicode="u" horiz-adv-x="500" 
d="M322 63h-2q-22 -40 -57 -58.5t-80 -18.5q-66 0 -101.5 36t-35.5 117v399h138v-371q0 -42 14 -58.5t45 -16.5q73 0 73 89v357h138v-538h-132v63z" />
    <glyph glyph-name="v" unicode="v" horiz-adv-x="444" 
d="M301 538h138l-135 -538h-160l-139 538h144l77 -385h2z" />
    <glyph glyph-name="w" unicode="w" horiz-adv-x="704" 
d="M7 538h138l63 -382h2l67 382h150l71 -382h2l65 382h132l-116 -538h-157l-71 382h-2l-67 -382h-160z" />
    <glyph glyph-name="x" unicode="x" horiz-adv-x="462" 
d="M305 538h144l-140 -261l146 -277h-144l-80 176l-80 -176h-144l146 277l-140 261h144l74 -162z" />
    <glyph glyph-name="y" unicode="y" horiz-adv-x="444" 
d="M46 -73q18 -3 36 -3q38 0 54.5 20t19.5 56l-151 538h144l80 -372h2l70 372h138l-130 -502q-6 -38 -28.5 -95.5t-45 -80t-54 -29.5t-79.5 -7h-56v103z" />
    <glyph glyph-name="z" unicode="z" horiz-adv-x="426" 
d="M24 106l215 320h-205v112h368v-106l-215 -320h215v-112h-378v106z" />
    <glyph glyph-name="braceleft" unicode="{" horiz-adv-x="315" 
d="M30 306q25 0 45.5 23t20.5 58v193q0 64 26.5 99t77.5 35h89v-100h-30q-24 0 -31.5 -21.5t-7.5 -50.5v-166q0 -45 -20 -74.5t-52 -35.5v-2q32 -6 52 -35.5t20 -74.5v-166q0 -29 7.5 -50.5t31.5 -21.5h30v-100h-89q-51 0 -77.5 35t-26.5 99v193q0 35 -20.5 58t-45.5 23v82z
" />
    <glyph glyph-name="bar" unicode="|" horiz-adv-x="222" 
d="M49 728h124v-742h-124v742z" />
    <glyph glyph-name="braceright" unicode="}" horiz-adv-x="315" 
d="M26 -84h30q24 0 31.5 21.5t7.5 50.5v166q0 45 20 74.5t52 35.5v2q-32 6 -52 35.5t-20 74.5v166q0 29 -7.5 50.5t-31.5 21.5h-30v100h89q51 0 77.5 -35t26.5 -99v-193q0 -35 20.5 -58t45.5 -23v-82q-25 0 -45.5 -23t-20.5 -58v-193q0 -64 -26.5 -99t-77.5 -35h-89v100z
" />
    <glyph glyph-name="asciitilde" unicode="~" horiz-adv-x="600" 
d="M531 243q-20 -38 -49 -62t-74 -24q-34 0 -61.5 9.5t-56.5 24.5q-21 11 -35.5 17.5t-25 10.5t-18.5 5t-16 1q-15 0 -29 -7t-26.5 -17.5t-21.5 -22.5t-13 -21l-36 106q20 38 49 62t74 24q53 0 109 -29q41 -22 62 -30.5t42 -8.5q15 0 29 7t26.5 17.5t21.5 22.5t13 21z" />
    <glyph glyph-name="uni00A0" unicode="&#xa0;" horiz-adv-x="240" 
 />
    <glyph glyph-name="Agrave" unicode="&#xc0;" horiz-adv-x="556" 
d="M208 269h140l-69 321h-2zM189 714h178l189 -714h-150l-33 151h-190l-33 -151h-150zM246 756l-98 144h138l54 -144h-94z" />
    <glyph glyph-name="Aacute" unicode="&#xc1;" horiz-adv-x="556" 
d="M208 269h140l-69 321h-2zM189 714h178l189 -714h-150l-33 151h-190l-33 -151h-150zM266 900h138l-98 -144h-94z" />
    <glyph glyph-name="Acircumflex" unicode="&#xc2;" horiz-adv-x="556" 
d="M208 269h140l-69 321h-2zM189 714h178l189 -714h-150l-33 151h-190l-33 -151h-150zM205 900h144l78 -144h-106l-46 85l-48 -85h-100z" />
    <glyph glyph-name="Atilde" unicode="&#xc3;" horiz-adv-x="556" 
d="M208 269h140l-69 321h-2zM189 714h178l189 -714h-150l-33 151h-190l-33 -151h-150zM121 765q8 60 31.5 92t61.5 32q28 0 43 -7l48 -21q15 -6 30 -6q14 0 21 13t7 23h72q-5 -54 -30 -89t-63 -35q-16 0 -32 5.5t-31.5 11.5l-29.5 11.5t-26 5.5q-25 0 -32 -36h-70z" />
    <glyph glyph-name="Adieresis" unicode="&#xc4;" horiz-adv-x="556" 
d="M208 269h140l-69 321h-2zM189 714h178l189 -714h-150l-33 151h-190l-33 -151h-150zM308 889h112v-118h-112v118zM136 889h112v-118h-112v118z" />
    <glyph glyph-name="Amacron" unicode="&#x100;" horiz-adv-x="556" 
d="M208 269h140l-69 321h-2zM189 714h178l189 -714h-150l-33 151h-190l-33 -151h-150zM425 866v-76h-294v76h294z" />
    <glyph glyph-name="Abreve" unicode="&#x102;" horiz-adv-x="556" 
d="M208 269h140l-69 321h-2zM189 714h178l189 -714h-150l-33 151h-190l-33 -151h-150zM204 899q3 -29 24 -47t50 -18t50 18t24 47h65q0 -20 -6.5 -44.5t-22.5 -46t-43 -36t-67 -14.5q-41 0 -67.5 14.5t-42.5 36t-22.5 46t-6.5 44.5h65z" />
    <glyph glyph-name="Aring" unicode="&#xc5;" horiz-adv-x="556" 
d="M208 269h140l-69 321h-2zM189 714h178l189 -714h-150l-33 151h-190l-33 -151h-150zM222 844q0 -24 16.5 -40.5t40.5 -16.5t40.5 16.5t16.5 40.5t-16.5 40.5t-40.5 16.5t-40.5 -16.5t-16.5 -40.5zM166 844q0 24 9 44.5t24.5 35t36 22.5t43.5 8t43.5 -8t36 -22.5t24.5 -35
t9 -44.5q0 -50 -33 -79t-80 -29q-48 0 -80.5 29t-32.5 79z" />
    <glyph glyph-name="Aogonek" unicode="&#x104;" horiz-adv-x="556" 
d="M493 -182q-28 -20 -53.5 -27.5t-60.5 -7.5q-29 0 -48 7.5t-29.5 18.5t-14.5 25t-4 28q0 37 33 74.5t90 63.5l-33 151h-190l-33 -151h-150l189 714h178l189 -714h-83q-31 -23 -50.5 -40.5t-31 -31.5t-15.5 -26t-4 -24q0 -31 28 -31q14 0 27.5 3.5t35.5 16.5zM208 269h140
l-69 321h-2z" />
    <glyph glyph-name="AE" unicode="&#xc6;" horiz-adv-x="759" 
d="M354 269v333h-9l-111 -333h120zM264 714h463v-118h-235v-168h220v-118h-220v-192h245v-118h-383v151h-159l-50 -151h-150z" />
    <glyph glyph-name="Cacute" unicode="&#x106;" horiz-adv-x="537" 
d="M355 473q0 78 -18.5 113.5t-67.5 35.5q-27 0 -44.5 -14.5t-27.5 -47t-14 -85t-4 -128.5q0 -81 5.5 -131t17 -77.5t29 -37t40.5 -9.5q19 0 35.5 6.5t28.5 26t19 55t7 93.5h144q0 -58 -9 -110t-33.5 -91.5t-69 -62.5t-115.5 -23q-81 0 -129 27.5t-73.5 76.5t-33 117.5
t-7.5 149.5t7.5 149.5t33 117.5t73.5 76.5t129 27.5q77 0 121.5 -25t66.5 -63.5t27.5 -83t5.5 -83.5h-144zM276 900h138l-98 -144h-94z" />
    <glyph glyph-name="Ccircumflex" unicode="&#x108;" horiz-adv-x="537" 
d="M355 473q0 78 -18.5 113.5t-67.5 35.5q-27 0 -44.5 -14.5t-27.5 -47t-14 -85t-4 -128.5q0 -81 5.5 -131t17 -77.5t29 -37t40.5 -9.5q19 0 35.5 6.5t28.5 26t19 55t7 93.5h144q0 -58 -9 -110t-33.5 -91.5t-69 -62.5t-115.5 -23q-81 0 -129 27.5t-73.5 76.5t-33 117.5
t-7.5 149.5t7.5 149.5t33 117.5t73.5 76.5t129 27.5q77 0 121.5 -25t66.5 -63.5t27.5 -83t5.5 -83.5h-144zM204 900h144l78 -144h-106l-46 85l-48 -85h-100z" />
    <glyph glyph-name="Ccaron" unicode="&#x10c;" horiz-adv-x="537" 
d="M355 473q0 78 -18.5 113.5t-67.5 35.5q-27 0 -44.5 -14.5t-27.5 -47t-14 -85t-4 -128.5q0 -81 5.5 -131t17 -77.5t29 -37t40.5 -9.5q19 0 35.5 6.5t28.5 26t19 55t7 93.5h144q0 -58 -9 -110t-33.5 -91.5t-69 -62.5t-115.5 -23q-81 0 -129 27.5t-73.5 76.5t-33 117.5
t-7.5 149.5t7.5 149.5t33 117.5t73.5 76.5t129 27.5q77 0 121.5 -25t66.5 -63.5t27.5 -83t5.5 -83.5h-144zM125 900h106l46 -85l48 85h100l-78 -144h-144z" />
    <glyph glyph-name="Cdotaccent" unicode="&#x10a;" horiz-adv-x="537" 
d="M355 473q0 78 -18.5 113.5t-67.5 35.5q-27 0 -44.5 -14.5t-27.5 -47t-14 -85t-4 -128.5q0 -81 5.5 -131t17 -77.5t29 -37t40.5 -9.5q19 0 35.5 6.5t28.5 26t19 55t7 93.5h144q0 -58 -9 -110t-33.5 -91.5t-69 -62.5t-115.5 -23q-81 0 -129 27.5t-73.5 76.5t-33 117.5
t-7.5 149.5t7.5 149.5t33 117.5t73.5 76.5t129 27.5q77 0 121.5 -25t66.5 -63.5t27.5 -83t5.5 -83.5h-144zM331 887v-118h-112v118h112z" />
    <glyph glyph-name="Ccedilla" unicode="&#xc7;" horiz-adv-x="537" 
d="M355 473q0 78 -18.5 113.5t-67.5 35.5q-27 0 -44.5 -14.5t-27.5 -47t-14 -85t-4 -128.5q0 -81 5.5 -131t17 -77.5t29 -37t40.5 -9.5q19 0 35.5 6.5t28.5 26t19 55t7 93.5h144q0 -44 -4.5 -84t-17 -74.5t-34.5 -61.5t-56 -44q-40 -20 -98 -23l-29 -44q9 3 16.5 4t16.5 1
q16 0 31.5 -4.5t27.5 -13.5t19 -22.5t6 -31.5q0 -45 -32.5 -68.5t-93.5 -23.5q-33 0 -60.5 6t-39.5 13l19 46q11 -6 30.5 -10.5t38.5 -4.5q21 0 35.5 9t14.5 24t-12 23t-32 9q-11 0 -18.5 -1.5t-15.5 -4.5l-22 20l49 76q-58 4 -95 25t-59.5 54.5t-34.5 77t-16 97t-4 115.5
q0 81 7.5 149.5t33 117.5t73.5 76.5t129 27.5q77 0 121.5 -25t66.5 -63.5t27.5 -83t5.5 -83.5h-144z" />
    <glyph glyph-name="Dcaron" unicode="&#x10e;" horiz-adv-x="574" 
d="M201 106h64q37 0 60.5 13t37 43t18 79t4.5 122q0 61 -4 106.5t-16.5 76.5t-37 46.5t-65.5 15.5h-61v-502zM57 714h236q75 0 121 -24.5t71.5 -70t34.5 -109.5t9 -143q0 -95 -11.5 -164t-39.5 -114t-75 -67t-119 -22h-227v714zM106 900h106l46 -85l48 85h100l-78 -144h-144
z" />
    <glyph glyph-name="Dcroat" unicode="&#x110;" horiz-adv-x="574" 
d="M201 421h93v-106h-93v-209h64q37 0 60.5 13t37 43t18 79t4.5 122q0 61 -4 106.5t-16.5 76.5t-37 46.5t-65.5 15.5h-61v-187zM57 315h-57v106h57v293h236q75 0 121 -24.5t71.5 -70t34.5 -109.5t9 -143q0 -95 -11.5 -164t-39.5 -114t-75 -67t-119 -22h-227v315z" />
    <glyph glyph-name="Eth" unicode="&#xd0;" horiz-adv-x="574" 
d="M201 421h93v-106h-93v-209h64q37 0 60.5 13t37 43t18 79t4.5 122q0 61 -4 106.5t-16.5 76.5t-37 46.5t-65.5 15.5h-61v-187zM57 315h-57v106h57v293h236q75 0 121 -24.5t71.5 -70t34.5 -109.5t9 -143q0 -95 -11.5 -164t-39.5 -114t-75 -67t-119 -22h-227v315z" />
    <glyph glyph-name="Egrave" unicode="&#xc8;" horiz-adv-x="481" 
d="M449 714v-118h-255v-168h240v-118h-240v-192h265v-118h-409v714h399zM225 756l-98 144h138l54 -144h-94z" />
    <glyph glyph-name="Eacute" unicode="&#xc9;" horiz-adv-x="481" 
d="M449 714v-118h-255v-168h240v-118h-240v-192h265v-118h-409v714h399zM253 900h138l-98 -144h-94z" />
    <glyph glyph-name="Ecircumflex" unicode="&#xca;" horiz-adv-x="481" 
d="M449 714v-118h-255v-168h240v-118h-240v-192h265v-118h-409v714h399zM179 900h144l78 -144h-106l-46 85l-48 -85h-100z" />
    <glyph glyph-name="Ecaron" unicode="&#x11a;" horiz-adv-x="481" 
d="M449 714v-118h-255v-168h240v-118h-240v-192h265v-118h-409v714h399zM103 900h106l46 -85l48 85h100l-78 -144h-144z" />
    <glyph glyph-name="Edieresis" unicode="&#xcb;" horiz-adv-x="481" 
d="M449 714v-118h-255v-168h240v-118h-240v-192h265v-118h-409v714h399zM278 887h112v-118h-112v118zM106 887h112v-118h-112v118z" />
    <glyph glyph-name="Emacron" unicode="&#x112;" horiz-adv-x="481" 
d="M449 714v-118h-255v-168h240v-118h-240v-192h265v-118h-409v714h399zM398 866v-76h-294v76h294z" />
    <glyph glyph-name="Ebreve" unicode="&#x114;" horiz-adv-x="481" 
d="M449 714v-118h-255v-168h240v-118h-240v-192h265v-118h-409v714h399zM173 899q3 -29 24 -47t50 -18t50 18t24 47h65q0 -20 -6.5 -44.5t-22.5 -46t-43 -36t-67 -14.5q-41 0 -67.5 14.5t-42.5 36t-22.5 46t-6.5 44.5h65z" />
    <glyph glyph-name="Edotaccent" unicode="&#x116;" horiz-adv-x="481" 
d="M449 714v-118h-255v-168h240v-118h-240v-192h265v-118h-409v714h399zM308 887v-118h-112v118h112z" />
    <glyph glyph-name="Eogonek" unicode="&#x118;" horiz-adv-x="481" 
d="M459 -182q-28 -20 -53.5 -27.5t-60.5 -7.5q-29 0 -48 7.5t-29.5 18.5t-14.5 25t-4 28q0 37 33 74.5t90 63.5h-322v714h399v-118h-255v-168h240v-118h-240v-192h265v-118h-20q-31 -23 -50.5 -40.5t-31 -31.5t-15.5 -26t-4 -24q0 -31 28 -31q14 0 27.5 3.5t35.5 16.5z" />
    <glyph glyph-name="Gcircumflex" unicode="&#x11c;" horiz-adv-x="556" 
d="M367 502q0 19 -4.5 40.5t-14.5 39t-25.5 29t-37.5 11.5q-52 0 -75 -58t-23 -192q0 -65 4 -116.5t14.5 -88t30 -56t50.5 -19.5q13 0 28.5 7t29 21t22.5 35.5t9 50.5v73h-95v106h233v-385h-106v66h-2q-26 -42 -62.5 -61t-87.5 -19q-66 0 -107.5 24.5t-65 72.5t-31.5 118.5
t-8 163.5q0 90 11.5 158t39.5 113.5t74 68.5t115 23q118 0 170 -58.5t52 -167.5h-138zM215 900h144l78 -144h-106l-46 85l-48 -85h-100z" />
    <glyph glyph-name="Gbreve" unicode="&#x11e;" horiz-adv-x="556" 
d="M367 502q0 19 -4.5 40.5t-14.5 39t-25.5 29t-37.5 11.5q-52 0 -75 -58t-23 -192q0 -65 4 -116.5t14.5 -88t30 -56t50.5 -19.5q13 0 28.5 7t29 21t22.5 35.5t9 50.5v73h-95v106h233v-385h-106v66h-2q-26 -42 -62.5 -61t-87.5 -19q-66 0 -107.5 24.5t-65 72.5t-31.5 118.5
t-8 163.5q0 90 11.5 158t39.5 113.5t74 68.5t115 23q118 0 170 -58.5t52 -167.5h-138zM210 899q3 -29 24 -47t50 -18t50 18t24 47h65q0 -20 -6.5 -44.5t-22.5 -46t-43 -36t-67 -14.5q-41 0 -67.5 14.5t-42.5 36t-22.5 46t-6.5 44.5h65z" />
    <glyph glyph-name="Gdotaccent" unicode="&#x120;" horiz-adv-x="556" 
d="M367 502q0 19 -4.5 40.5t-14.5 39t-25.5 29t-37.5 11.5q-52 0 -75 -58t-23 -192q0 -65 4 -116.5t14.5 -88t30 -56t50.5 -19.5q13 0 28.5 7t29 21t22.5 35.5t9 50.5v73h-95v106h233v-385h-106v66h-2q-26 -42 -62.5 -61t-87.5 -19q-66 0 -107.5 24.5t-65 72.5t-31.5 118.5
t-8 163.5q0 90 11.5 158t39.5 113.5t74 68.5t115 23q118 0 170 -58.5t52 -167.5h-138zM342 887v-118h-112v118h112z" />
    <glyph glyph-name="Gcommaaccent" unicode="&#x122;" horiz-adv-x="556" 
d="M367 502q0 19 -4.5 40.5t-14.5 39t-25.5 29t-37.5 11.5q-52 0 -75 -58t-23 -192q0 -65 4 -116.5t14.5 -88t30 -56t50.5 -19.5q13 0 28.5 7t29 21t22.5 35.5t9 50.5v73h-95v106h233v-385h-106v66h-2q-26 -42 -62.5 -61t-87.5 -19q-66 0 -107.5 24.5t-65 72.5t-31.5 118.5
t-8 163.5q0 90 11.5 158t39.5 113.5t74 68.5t115 23q118 0 170 -58.5t52 -167.5h-138zM337 -50v-97q0 -34 -8.5 -54t-22.5 -31t-31.5 -15t-34.5 -6v36q17 5 26 15.5t10 33.5h-51v118h112z" />
    <glyph glyph-name="Hcircumflex" unicode="&#x124;" horiz-adv-x="556" 
d="M50 714h144v-273h168v273h144v-714h-144v317h-168v-317h-144v714zM207 900h144l78 -144h-106l-46 85l-48 -85h-100z" />
    <glyph glyph-name="Hbar" unicode="&#x126;" horiz-adv-x="556" 
d="M50 714h144v-146h168v146h144v-714h-144v300h-168v-300h-144v714zM362 420v87h-168v-87h168z" />
    <glyph glyph-name="Igrave" unicode="&#xcc;" horiz-adv-x="258" 
d="M57 0v714h144v-714h-144zM108 756l-98 144h138l54 -144h-94z" />
    <glyph glyph-name="Iacute" unicode="&#xcd;" horiz-adv-x="258" 
d="M57 0v714h144v-714h-144zM112 900h138l-98 -144h-94z" />
    <glyph glyph-name="Icircumflex" unicode="&#xce;" horiz-adv-x="258" 
d="M57 0v714h144v-714h-144zM59 900h144l78 -144h-106l-46 85l-48 -85h-100z" />
    <glyph glyph-name="Itilde" unicode="&#x128;" horiz-adv-x="258" 
d="M57 0v714h144v-714h-144zM-27 765q8 60 31.5 92t61.5 32q28 0 43 -7l48 -21q15 -6 30 -6q14 0 21 13t7 23h72q-5 -54 -30 -89t-63 -35q-16 0 -32 5.5t-31.5 11.5l-29.5 11.5t-26 5.5q-25 0 -32 -36h-70z" />
    <glyph glyph-name="Idieresis" unicode="&#xcf;" horiz-adv-x="258" 
d="M57 0v714h144v-714h-144zM160 887h112v-118h-112v118zM-12 887h112v-118h-112v118z" />
    <glyph glyph-name="Imacron" unicode="&#x12a;" horiz-adv-x="258" 
d="M57 0v714h144v-714h-144zM277 866v-76h-294v76h294z" />
    <glyph glyph-name="Idotaccent" unicode="&#x130;" horiz-adv-x="258" 
d="M57 0v714h144v-714h-144zM185 887v-118h-112v118h112z" />
    <glyph glyph-name="Iogonek" unicode="&#x12e;" horiz-adv-x="258" 
d="M221 -182q-28 -20 -53.5 -27.5t-60.5 -7.5q-29 0 -48 7.5t-29.5 18.5t-14.5 25t-4 28q0 37 33 74.5t90 63.5h-77v714h144v-714q-31 -23 -50.5 -40.5t-31 -31.5t-15.5 -26t-4 -24q0 -31 28 -31q14 0 27.5 3.5t35.5 16.5z" />
    <glyph glyph-name="Jcircumflex" unicode="&#x134;" horiz-adv-x="463" 
d="M419 714v-514q0 -114 -53 -164t-162 -50q-57 0 -93.5 17t-58 45.5t-29.5 66.5t-8 80v31h132v-22q0 -57 12.5 -84.5t51.5 -27.5t51.5 27.5t12.5 84.5v510h144zM274 900h144l78 -144h-106l-46 85l-48 -85h-100z" />
    <glyph glyph-name="Kcommaaccent" unicode="&#x136;" horiz-adv-x="537" 
d="M194 714v-286h2l182 286h156l-194 -306l216 -408h-162l-147 293l-53 -81v-212h-144v714h144zM345 -50v-97q0 -34 -8.5 -54t-22.5 -31t-31.5 -15t-34.5 -6v36q17 5 26 15.5t10 33.5h-51v118h112z" />
    <glyph glyph-name="Lacute" unicode="&#x139;" horiz-adv-x="463" 
d="M50 0v714h144v-596h255v-118h-399zM124 900h138l-98 -144h-94z" />
    <glyph glyph-name="Lcaron" unicode="&#x13d;" horiz-adv-x="463" 
d="M50 0v714h144v-596h255v-118h-399zM278 714h120l-63 -144h-90z" />
    <glyph glyph-name="Lcommaaccent" unicode="&#x13b;" horiz-adv-x="463" 
d="M50 0v714h144v-596h255v-118h-399zM309 -50v-97q0 -34 -8.5 -54t-22.5 -31t-31.5 -15t-34.5 -6v36q17 5 26 15.5t10 33.5h-51v118h112z" />
    <glyph glyph-name="Lslash" unicode="&#x141;" horiz-adv-x="463" 
d="M50 256l-50 -31v106l50 31v352h144v-262l126 79v-106l-126 -79v-228h255v-118h-399v256z" />
    <glyph glyph-name="Ldot" unicode="&#x13f;" horiz-adv-x="463" 
d="M50 0v714h144v-596h255v-118h-399zM379 539v-118h-112v118h112z" />
    <glyph glyph-name="Nacute" unicode="&#x143;" horiz-adv-x="574" 
d="M216 714l174 -489h2v489h132v-714h-164l-176 500h-2v-500h-132v714h166zM292 900h138l-98 -144h-94z" />
    <glyph glyph-name="Ncaron" unicode="&#x147;" horiz-adv-x="574" 
d="M216 714l174 -489h2v489h132v-714h-164l-176 500h-2v-500h-132v714h166zM137 900h106l46 -85l48 85h100l-78 -144h-144z" />
    <glyph glyph-name="Ntilde" unicode="&#xd1;" horiz-adv-x="574" 
d="M216 714l174 -489h2v489h132v-714h-164l-176 500h-2v-500h-132v714h166zM132 765q8 60 31.5 92t61.5 32q28 0 43 -7l48 -21q15 -6 30 -6q14 0 21 13t7 23h72q-5 -54 -30 -89t-63 -35q-16 0 -32 5.5t-31.5 11.5l-29.5 11.5t-26 5.5q-25 0 -32 -36h-70z" />
    <glyph glyph-name="Ncommaaccent" unicode="&#x145;" horiz-adv-x="574" 
d="M216 714l174 -489h2v489h132v-714h-164l-176 500h-2v-500h-132v714h166zM344 -50v-97q0 -34 -8.5 -54t-22.5 -31t-31.5 -15t-34.5 -6v36q17 5 26 15.5t10 33.5h-51v118h112z" />
    <glyph glyph-name="Ograve" unicode="&#xd2;" horiz-adv-x="556" 
d="M35 357q0 81 7.5 149.5t33 117.5t73.5 76.5t129 27.5t129 -27.5t73.5 -76.5t33 -117.5t7.5 -149.5t-7.5 -149.5t-33 -117.5t-73.5 -76.5t-129 -27.5t-129 27.5t-73.5 76.5t-33 117.5t-7.5 149.5zM179 357q0 -72 3.5 -122.5t14 -82t30 -46t51.5 -14.5t51.5 14.5t30 46
t14 82t3.5 122.5t-3.5 122t-14 82t-30 46.5t-51.5 14.5t-51.5 -14.5t-30 -46.5t-14 -82t-3.5 -122zM246 756l-98 144h138l54 -144h-94z" />
    <glyph glyph-name="Oacute" unicode="&#xd3;" horiz-adv-x="556" 
d="M35 357q0 81 7.5 149.5t33 117.5t73.5 76.5t129 27.5t129 -27.5t73.5 -76.5t33 -117.5t7.5 -149.5t-7.5 -149.5t-33 -117.5t-73.5 -76.5t-129 -27.5t-129 27.5t-73.5 76.5t-33 117.5t-7.5 149.5zM179 357q0 -72 3.5 -122.5t14 -82t30 -46t51.5 -14.5t51.5 14.5t30 46
t14 82t3.5 122.5t-3.5 122t-14 82t-30 46.5t-51.5 14.5t-51.5 -14.5t-30 -46.5t-14 -82t-3.5 -122zM281 900h138l-98 -144h-94z" />
    <glyph glyph-name="Ocircumflex" unicode="&#xd4;" horiz-adv-x="556" 
d="M35 357q0 81 7.5 149.5t33 117.5t73.5 76.5t129 27.5t129 -27.5t73.5 -76.5t33 -117.5t7.5 -149.5t-7.5 -149.5t-33 -117.5t-73.5 -76.5t-129 -27.5t-129 27.5t-73.5 76.5t-33 117.5t-7.5 149.5zM179 357q0 -72 3.5 -122.5t14 -82t30 -46t51.5 -14.5t51.5 14.5t30 46
t14 82t3.5 122.5t-3.5 122t-14 82t-30 46.5t-51.5 14.5t-51.5 -14.5t-30 -46.5t-14 -82t-3.5 -122zM208 900h144l78 -144h-106l-46 85l-48 -85h-100z" />
    <glyph glyph-name="Otilde" unicode="&#xd5;" horiz-adv-x="556" 
d="M35 357q0 81 7.5 149.5t33 117.5t73.5 76.5t129 27.5t129 -27.5t73.5 -76.5t33 -117.5t7.5 -149.5t-7.5 -149.5t-33 -117.5t-73.5 -76.5t-129 -27.5t-129 27.5t-73.5 76.5t-33 117.5t-7.5 149.5zM179 357q0 -72 3.5 -122.5t14 -82t30 -46t51.5 -14.5t51.5 14.5t30 46
t14 82t3.5 122.5t-3.5 122t-14 82t-30 46.5t-51.5 14.5t-51.5 -14.5t-30 -46.5t-14 -82t-3.5 -122zM120 765q8 60 31.5 92t61.5 32q28 0 43 -7l48 -21q15 -6 30 -6q14 0 21 13t7 23h72q-5 -54 -30 -89t-63 -35q-16 0 -32 5.5t-31.5 11.5l-29.5 11.5t-26 5.5q-25 0 -32 -36
h-70z" />
    <glyph glyph-name="Odieresis" unicode="&#xd6;" horiz-adv-x="556" 
d="M35 357q0 81 7.5 149.5t33 117.5t73.5 76.5t129 27.5t129 -27.5t73.5 -76.5t33 -117.5t7.5 -149.5t-7.5 -149.5t-33 -117.5t-73.5 -76.5t-129 -27.5t-129 27.5t-73.5 76.5t-33 117.5t-7.5 149.5zM179 357q0 -72 3.5 -122.5t14 -82t30 -46t51.5 -14.5t51.5 14.5t30 46
t14 82t3.5 122.5t-3.5 122t-14 82t-30 46.5t-51.5 14.5t-51.5 -14.5t-30 -46.5t-14 -82t-3.5 -122zM309 887h112v-118h-112v118zM137 887h112v-118h-112v118z" />
    <glyph glyph-name="Omacron" unicode="&#x14c;" horiz-adv-x="556" 
d="M35 357q0 81 7.5 149.5t33 117.5t73.5 76.5t129 27.5t129 -27.5t73.5 -76.5t33 -117.5t7.5 -149.5t-7.5 -149.5t-33 -117.5t-73.5 -76.5t-129 -27.5t-129 27.5t-73.5 76.5t-33 117.5t-7.5 149.5zM179 357q0 -72 3.5 -122.5t14 -82t30 -46t51.5 -14.5t51.5 14.5t30 46
t14 82t3.5 122.5t-3.5 122t-14 82t-30 46.5t-51.5 14.5t-51.5 -14.5t-30 -46.5t-14 -82t-3.5 -122zM424 866v-76h-294v76h294z" />
    <glyph glyph-name="Obreve" unicode="&#x14e;" horiz-adv-x="556" 
d="M35 357q0 81 7.5 149.5t33 117.5t73.5 76.5t129 27.5t129 -27.5t73.5 -76.5t33 -117.5t7.5 -149.5t-7.5 -149.5t-33 -117.5t-73.5 -76.5t-129 -27.5t-129 27.5t-73.5 76.5t-33 117.5t-7.5 149.5zM179 357q0 -72 3.5 -122.5t14 -82t30 -46t51.5 -14.5t51.5 14.5t30 46
t14 82t3.5 122.5t-3.5 122t-14 82t-30 46.5t-51.5 14.5t-51.5 -14.5t-30 -46.5t-14 -82t-3.5 -122zM203 899q3 -29 24 -47t50 -18t50 18t24 47h65q0 -20 -6.5 -44.5t-22.5 -46t-43 -36t-67 -14.5q-41 0 -67.5 14.5t-42.5 36t-22.5 46t-6.5 44.5h65z" />
    <glyph glyph-name="Ohungarumlaut" unicode="&#x150;" horiz-adv-x="556" 
d="M35 357q0 81 7.5 149.5t33 117.5t73.5 76.5t129 27.5t129 -27.5t73.5 -76.5t33 -117.5t7.5 -149.5t-7.5 -149.5t-33 -117.5t-73.5 -76.5t-129 -27.5t-129 27.5t-73.5 76.5t-33 117.5t-7.5 149.5zM179 357q0 -72 3.5 -122.5t14 -82t30 -46t51.5 -14.5t51.5 14.5t30 46
t14 82t3.5 122.5t-3.5 122t-14 82t-30 46.5t-51.5 14.5t-51.5 -14.5t-30 -46.5t-14 -82t-3.5 -122zM364 900h138l-98 -144h-94zM198 900h138l-98 -144h-94z" />
    <glyph glyph-name="Oslash" unicode="&#xd8;" horiz-adv-x="556" 
d="M113 40q-25 23 -40.5 55.5t-23.5 73t-11 88t-3 100.5q0 81 7.5 149.5t33 117.5t73.5 76.5t129 27.5q73 0 121 -24l26 61l48 -21l-30 -70q25 -23 40.5 -55.5t23.5 -73t11 -88t3 -100.5q0 -81 -7.5 -149.5t-33 -117.5t-73.5 -76.5t-129 -27.5q-75 0 -121 24l-26 -61l-48 21
zM208 129q19 -37 70 -37q32 0 51.5 14.5t30 46t14 82t3.5 122.5q0 46 -1 82.5t-5 65.5h-2zM348 586q-23 36 -70 36q-32 0 -51.5 -14.5t-30 -46.5t-14 -82t-3.5 -122q0 -48 1 -84t5 -64h2z" />
    <glyph glyph-name="OE" unicode="&#x152;" horiz-adv-x="778" 
d="M179 357q0 -71 3 -121.5t13.5 -82.5t30 -46.5t52.5 -14.5q32 0 50 13t27 44t11 82t2 126t-2 126t-11 82t-27 44t-50 13q-33 0 -52.5 -14.5t-30 -46.5t-13.5 -82.5t-3 -121.5zM748 596h-242v-168h227v-118h-227v-192h250v-118h-373v41h-2q-6 -13 -19 -23.5t-30.5 -17.5
t-36.5 -10.5t-37 -3.5q-78 0 -123 32.5t-67 85.5t-27.5 121.5t-5.5 139.5q0 69 7.5 134.5t30.5 116.5t65.5 81.5t112.5 30.5q38 0 75 -11t55 -41h2v38h365v-118z" />
    <glyph glyph-name="Racute" unicode="&#x154;" horiz-adv-x="556" 
d="M50 714h266q90 0 140 -45.5t50 -138.5q0 -72 -29 -117.5t-90 -58.5v-2q37 -5 59 -18.5t34 -39t16.5 -64.5t5.5 -96t6.5 -87t25.5 -41v-6h-156q-11 15 -14 34.5t-4 40.5l-4 137q-2 42 -21 66t-64 24h-77v-302h-144v714zM194 402h60q52 0 80 24.5t28 82.5q0 99 -100 99h-68
v-206zM249 900h138l-98 -144h-94z" />
    <glyph glyph-name="Rcaron" unicode="&#x158;" horiz-adv-x="556" 
d="M50 714h266q90 0 140 -45.5t50 -138.5q0 -72 -29 -117.5t-90 -58.5v-2q37 -5 59 -18.5t34 -39t16.5 -64.5t5.5 -96t6.5 -87t25.5 -41v-6h-156q-11 15 -14 34.5t-4 40.5l-4 137q-2 42 -21 66t-64 24h-77v-302h-144v714zM194 402h60q52 0 80 24.5t28 82.5q0 99 -100 99h-68
v-206zM108 900h106l46 -85l48 85h100l-78 -144h-144z" />
    <glyph glyph-name="Rcommaaccent" unicode="&#x156;" horiz-adv-x="556" 
d="M50 714h266q90 0 140 -45.5t50 -138.5q0 -72 -29 -117.5t-90 -58.5v-2q37 -5 59 -18.5t34 -39t16.5 -64.5t5.5 -96t6.5 -87t25.5 -41v-6h-156q-11 15 -14 34.5t-4 40.5l-4 137q-2 42 -21 66t-64 24h-77v-302h-144v714zM194 402h60q52 0 80 24.5t28 82.5q0 99 -100 99h-68
v-206zM342 -50v-97q0 -34 -8.5 -54t-22.5 -31t-31.5 -15t-34.5 -6v36q17 5 26 15.5t10 33.5h-51v118h112z" />
    <glyph glyph-name="Sacute" unicode="&#x15a;" horiz-adv-x="519" 
d="M166 223v-21q0 -25 4 -45.5t15 -34.5t29 -22t47 -8q33 0 59.5 21.5t26.5 66.5q0 24 -6.5 41.5t-21.5 31.5t-39.5 25.5t-60.5 23.5q-48 16 -83 35t-58.5 44.5t-34.5 59t-11 77.5q0 106 59 158t162 52q48 0 88.5 -10.5t70 -34t46 -60t16.5 -87.5v-20h-138q0 51 -18 78.5
t-60 27.5q-24 0 -40 -7t-25.5 -18.5t-13 -26.5t-3.5 -31q0 -33 14 -55.5t60 -41.5l111 -48q40 -18 66.5 -37.5t42 -42t21.5 -49.5t6 -60q0 -113 -65.5 -166t-182.5 -53q-122 0 -174.5 54.5t-52.5 153.5v29h144zM261 900h138l-98 -144h-94z" />
    <glyph glyph-name="Scircumflex" unicode="&#x15c;" horiz-adv-x="519" 
d="M166 223v-21q0 -25 4 -45.5t15 -34.5t29 -22t47 -8q33 0 59.5 21.5t26.5 66.5q0 24 -6.5 41.5t-21.5 31.5t-39.5 25.5t-60.5 23.5q-48 16 -83 35t-58.5 44.5t-34.5 59t-11 77.5q0 106 59 158t162 52q48 0 88.5 -10.5t70 -34t46 -60t16.5 -87.5v-20h-138q0 51 -18 78.5
t-60 27.5q-24 0 -40 -7t-25.5 -18.5t-13 -26.5t-3.5 -31q0 -33 14 -55.5t60 -41.5l111 -48q40 -18 66.5 -37.5t42 -42t21.5 -49.5t6 -60q0 -113 -65.5 -166t-182.5 -53q-122 0 -174.5 54.5t-52.5 153.5v29h144zM187 900h144l78 -144h-106l-46 85l-48 -85h-100z" />
    <glyph glyph-name="Scaron" unicode="&#x160;" horiz-adv-x="519" 
d="M166 223v-21q0 -25 4 -45.5t15 -34.5t29 -22t47 -8q33 0 59.5 21.5t26.5 66.5q0 24 -6.5 41.5t-21.5 31.5t-39.5 25.5t-60.5 23.5q-48 16 -83 35t-58.5 44.5t-34.5 59t-11 77.5q0 106 59 158t162 52q48 0 88.5 -10.5t70 -34t46 -60t16.5 -87.5v-20h-138q0 51 -18 78.5
t-60 27.5q-24 0 -40 -7t-25.5 -18.5t-13 -26.5t-3.5 -31q0 -33 14 -55.5t60 -41.5l111 -48q40 -18 66.5 -37.5t42 -42t21.5 -49.5t6 -60q0 -113 -65.5 -166t-182.5 -53q-122 0 -174.5 54.5t-52.5 153.5v29h144zM107 902h106l46 -85l48 85h100l-78 -144h-144z" />
    <glyph glyph-name="Scedilla" unicode="&#x15e;" horiz-adv-x="519" 
d="M166 223v-21q0 -25 4 -45.5t15 -34.5t29 -22t47 -8q33 0 59.5 21.5t26.5 66.5q0 24 -6.5 41.5t-21.5 31.5t-39.5 25.5t-60.5 23.5q-48 16 -83 35t-58.5 44.5t-34.5 59t-11 77.5q0 106 59 158t162 52q48 0 88.5 -10.5t70 -34t46 -60t16.5 -87.5v-20h-138q0 51 -18 78.5
t-60 27.5q-24 0 -40 -7t-25.5 -18.5t-13 -26.5t-3.5 -31q0 -33 14 -55.5t60 -41.5l111 -48q40 -18 66.5 -37.5t42 -42t21.5 -49.5t6 -60q0 -113 -66 -166q-60 -48 -166 -53l-29 -44q9 3 16.5 4t16.5 1q16 0 31.5 -4.5t27.5 -13.5t19 -22.5t6 -31.5q0 -45 -32.5 -68.5
t-93.5 -23.5q-33 0 -60.5 6t-39.5 13l19 46q11 -6 30.5 -10.5t38.5 -4.5q21 0 35.5 9t14.5 24t-12 23t-32 9q-11 0 -18.5 -1.5t-15.5 -4.5l-22 20l48 75q-93 7 -139 53q-52 55 -52 154v29h144z" />
    <glyph glyph-name="Scommaaccent" unicode="&#x218;" horiz-adv-x="519" 
d="M166 223v-21q0 -25 4 -45.5t15 -34.5t29 -22t47 -8q33 0 59.5 21.5t26.5 66.5q0 24 -6.5 41.5t-21.5 31.5t-39.5 25.5t-60.5 23.5q-48 16 -83 35t-58.5 44.5t-34.5 59t-11 77.5q0 106 59 158t162 52q48 0 88.5 -10.5t70 -34t46 -60t16.5 -87.5v-20h-138q0 51 -18 78.5
t-60 27.5q-24 0 -40 -7t-25.5 -18.5t-13 -26.5t-3.5 -31q0 -33 14 -55.5t60 -41.5l111 -48q40 -18 66.5 -37.5t42 -42t21.5 -49.5t6 -60q0 -113 -65.5 -166t-182.5 -53q-122 0 -174.5 54.5t-52.5 153.5v29h144zM310 -50v-97q0 -34 -8.5 -54t-22.5 -31t-31.5 -15t-34.5 -6v36
q17 5 26 15.5t10 33.5h-51v118h112z" />
    <glyph glyph-name="Tcaron" unicode="&#x164;" 
d="M468 714v-118h-156v-596h-144v596h-156v118h456zM91 900h106l46 -85l48 85h100l-78 -144h-144z" />
    <glyph glyph-name="Tcommaaccent" unicode="&#x162;" 
d="M468 714v-118h-156v-596h-144v596h-156v118h456zM297 -50v-97q0 -34 -8.5 -54t-22.5 -31t-31.5 -15t-34.5 -6v36q17 5 26 15.5t10 33.5h-51v118h112z" />
    <glyph glyph-name="uni021A" unicode="&#x21a;" 
d="M468 714v-118h-156v-596h-144v596h-156v118h456zM297 -50v-97q0 -34 -8.5 -54t-22.5 -31t-31.5 -15t-34.5 -6v36q17 5 26 15.5t10 33.5h-51v118h112z" />
    <glyph glyph-name="Tbar" unicode="&#x166;" 
d="M468 714v-118h-156v-130h108v-61h-108v-405h-144v405h-108v61h108v130h-156v118h456z" />
    <glyph glyph-name="Thorn" unicode="&#xde;" horiz-adv-x="519" 
d="M194 263h64q43 0 69.5 26t26.5 81q0 54 -23 82t-77 28h-60v-217zM50 714h144v-128h108q55 0 92.5 -18.5t60.5 -48.5t33 -68.5t10 -78.5q0 -56 -16.5 -96.5t-46 -66.5t-71.5 -39t-93 -13h-77v-157h-144v714z" />
    <glyph glyph-name="Ugrave" unicode="&#xd9;" horiz-adv-x="538" 
d="M185 714v-498q0 -27 3.5 -49.5t13 -39t25.5 -26t42 -9.5q25 0 41.5 9.5t26 26t13 39t3.5 49.5v498h144v-498q0 -68 -19 -112.5t-51 -70.5t-73 -36.5t-85 -10.5t-85 9t-73 34.5t-51 70t-19 116.5v498h144zM239 756l-98 144h138l54 -144h-94z" />
    <glyph glyph-name="Uacute" unicode="&#xda;" horiz-adv-x="538" 
d="M185 714v-498q0 -27 3.5 -49.5t13 -39t25.5 -26t42 -9.5q25 0 41.5 9.5t26 26t13 39t3.5 49.5v498h144v-498q0 -68 -19 -112.5t-51 -70.5t-73 -36.5t-85 -10.5t-85 9t-73 34.5t-51 70t-19 116.5v498h144zM274 900h138l-98 -144h-94z" />
    <glyph glyph-name="Ucircumflex" unicode="&#xdb;" horiz-adv-x="538" 
d="M185 714v-498q0 -27 3.5 -49.5t13 -39t25.5 -26t42 -9.5q25 0 41.5 9.5t26 26t13 39t3.5 49.5v498h144v-498q0 -68 -19 -112.5t-51 -70.5t-73 -36.5t-85 -10.5t-85 9t-73 34.5t-51 70t-19 116.5v498h144zM198 900h144l78 -144h-106l-46 85l-48 -85h-100z" />
    <glyph glyph-name="Utilde" unicode="&#x168;" horiz-adv-x="538" 
d="M185 714v-498q0 -27 3.5 -49.5t13 -39t25.5 -26t42 -9.5q25 0 41.5 9.5t26 26t13 39t3.5 49.5v498h144v-498q0 -68 -19 -112.5t-51 -70.5t-73 -36.5t-85 -10.5t-85 9t-73 34.5t-51 70t-19 116.5v498h144zM115 765q8 60 31.5 92t61.5 32q28 0 43 -7l48 -21q15 -6 30 -6
q14 0 21 13t7 23h72q-5 -54 -30 -89t-63 -35q-16 0 -32 5.5t-31.5 11.5l-29.5 11.5t-26 5.5q-25 0 -32 -36h-70z" />
    <glyph glyph-name="Udieresis" unicode="&#xdc;" horiz-adv-x="538" 
d="M185 714v-498q0 -27 3.5 -49.5t13 -39t25.5 -26t42 -9.5q25 0 41.5 9.5t26 26t13 39t3.5 49.5v498h144v-498q0 -68 -19 -112.5t-51 -70.5t-73 -36.5t-85 -10.5t-85 9t-73 34.5t-51 70t-19 116.5v498h144zM299 887h112v-118h-112v118zM127 887h112v-118h-112v118z" />
    <glyph glyph-name="Umacron" unicode="&#x16a;" horiz-adv-x="538" 
d="M185 714v-498q0 -27 3.5 -49.5t13 -39t25.5 -26t42 -9.5q25 0 41.5 9.5t26 26t13 39t3.5 49.5v498h144v-498q0 -68 -19 -112.5t-51 -70.5t-73 -36.5t-85 -10.5t-85 9t-73 34.5t-51 70t-19 116.5v498h144zM417 866v-76h-294v76h294z" />
    <glyph glyph-name="Ubreve" unicode="&#x16c;" horiz-adv-x="538" 
d="M185 714v-498q0 -27 3.5 -49.5t13 -39t25.5 -26t42 -9.5q25 0 41.5 9.5t26 26t13 39t3.5 49.5v498h144v-498q0 -68 -19 -112.5t-51 -70.5t-73 -36.5t-85 -10.5t-85 9t-73 34.5t-51 70t-19 116.5v498h144zM196 899q3 -29 24 -47t50 -18t50 18t24 47h65q0 -20 -6.5 -44.5
t-22.5 -46t-43 -36t-67 -14.5q-41 0 -67.5 14.5t-42.5 36t-22.5 46t-6.5 44.5h65z" />
    <glyph glyph-name="Uring" unicode="&#x16e;" horiz-adv-x="538" 
d="M185 714v-498q0 -27 3.5 -49.5t13 -39t25.5 -26t42 -9.5q25 0 41.5 9.5t26 26t13 39t3.5 49.5v498h144v-498q0 -68 -19 -112.5t-51 -70.5t-73 -36.5t-85 -10.5t-85 9t-73 34.5t-51 70t-19 116.5v498h144zM213 844q0 -24 16.5 -40.5t40.5 -16.5t40.5 16.5t16.5 40.5
t-16.5 40.5t-40.5 16.5t-40.5 -16.5t-16.5 -40.5zM157 844q0 24 9 44.5t24.5 35t36 22.5t43.5 8t43.5 -8t36 -22.5t24.5 -35t9 -44.5q0 -50 -33 -79t-80 -29q-48 0 -80.5 29t-32.5 79z" />
    <glyph glyph-name="Uhungarumlaut" unicode="&#x170;" horiz-adv-x="538" 
d="M185 714v-498q0 -27 3.5 -49.5t13 -39t25.5 -26t42 -9.5q25 0 41.5 9.5t26 26t13 39t3.5 49.5v498h144v-498q0 -68 -19 -112.5t-51 -70.5t-73 -36.5t-85 -10.5t-85 9t-73 34.5t-51 70t-19 116.5v498h144zM358 900h138l-98 -144h-94zM192 900h138l-98 -144h-94z" />
    <glyph glyph-name="Uogonek" unicode="&#x172;" horiz-adv-x="538" 
d="M368 -182q-28 -20 -53.5 -27.5t-60.5 -7.5q-29 0 -48 7.5t-29.5 18.5t-14.5 25t-4 28q0 37 33 75q23 27 62 49q-36 1 -69 9q-30 7 -56.5 22.5t-45.5 42t-30 65t-11 91.5v498h144v-498q0 -27 3.5 -49.5t13 -39t25.5 -26t42 -9.5q25 0 41.5 9.5t26 26t13 39t3.5 49.5v498
h144v-498q0 -51 -11 -88.5t-30 -64t-45.5 -43t-56.5 -23.5l-17 -4q-13 -10 -22.5 -18l-17.5 -15q-29 -27 -39.5 -45.5t-10.5 -36.5q0 -31 28 -31q14 0 27.5 3.5t35.5 16.5z" />
    <glyph glyph-name="Wcircumflex" unicode="&#x174;" horiz-adv-x="760" 
d="M8 714h138l79 -528h2l84 528h138l84 -528h2l79 528h138l-130 -714h-161l-80 518h-2l-80 -518h-161zM308 900h144l78 -144h-106l-46 85l-48 -85h-100z" />
    <glyph glyph-name="Yacute" unicode="&#xdd;" horiz-adv-x="520" 
d="M165 714l94 -276h2l100 276h156l-185 -433v-281h-144v281l-185 433h162zM270 902h138l-98 -144h-94z" />
    <glyph glyph-name="Ycircumflex" unicode="&#x176;" horiz-adv-x="520" 
d="M165 714l94 -276h2l100 276h156l-185 -433v-281h-144v281l-185 433h162zM191 900h144l78 -144h-106l-46 85l-48 -85h-100z" />
    <glyph glyph-name="Ydieresis" unicode="&#x178;" horiz-adv-x="520" 
d="M165 714l94 -276h2l100 276h156l-185 -433v-281h-144v281l-185 433h162zM290 887h112v-118h-112v118zM118 887h112v-118h-112v118z" />
    <glyph glyph-name="Zacute" unicode="&#x179;" horiz-adv-x="481" 
d="M24 105l263 491h-245v118h411v-109l-267 -487h271v-118h-433v105zM246 900h138l-98 -144h-94z" />
    <glyph glyph-name="Zcaron" unicode="&#x17d;" horiz-adv-x="481" 
d="M24 105l263 491h-245v118h411v-109l-267 -487h271v-118h-433v105zM102 902h106l46 -85l48 85h100l-78 -144h-144z" />
    <glyph glyph-name="Zdotaccent" unicode="&#x17b;" horiz-adv-x="481" 
d="M24 105l263 491h-245v118h411v-109l-267 -487h271v-118h-433v105zM303 887v-118h-112v118h112z" />
    <glyph glyph-name="agrave" unicode="&#xe0;" horiz-adv-x="481" 
d="M45 373v13q0 46 15 78t40.5 51.5t60 28t73.5 8.5q61 0 99.5 -12t59.5 -34t28.5 -52.5t7.5 -66.5v-283q0 -38 3.5 -59t13.5 -45h-132q-7 13 -10.5 27.5t-6.5 28.5h-2q-24 -42 -55.5 -56t-81.5 -14q-36 0 -61 14t-40 36t-22 49.5t-7 54.5q0 38 8 65.5t24.5 47t42 32.5
t61.5 23l78 21q31 8 43 22t12 41q0 31 -14.5 48.5t-49.5 17.5q-32 0 -48 -19t-16 -51v-15h-124zM297 269q-14 -11 -30 -17.5t-29 -9.5q-42 -9 -60 -30t-18 -57q0 -31 12 -53t40 -22q14 0 29 4.5t27.5 14.5t20.5 25.5t8 38.5v106zM214 602l-98 144h138l54 -144h-94z" />
    <glyph glyph-name="aacute" unicode="&#xe1;" horiz-adv-x="481" 
d="M45 373v13q0 46 15 78t40.5 51.5t60 28t73.5 8.5q61 0 99.5 -12t59.5 -34t28.5 -52.5t7.5 -66.5v-283q0 -38 3.5 -59t13.5 -45h-132q-7 13 -10.5 27.5t-6.5 28.5h-2q-24 -42 -55.5 -56t-81.5 -14q-36 0 -61 14t-40 36t-22 49.5t-7 54.5q0 38 8 65.5t24.5 47t42 32.5
t61.5 23l78 21q31 8 43 22t12 41q0 31 -14.5 48.5t-49.5 17.5q-32 0 -48 -19t-16 -51v-15h-124zM297 269q-14 -11 -30 -17.5t-29 -9.5q-42 -9 -60 -30t-18 -57q0 -31 12 -53t40 -22q14 0 29 4.5t27.5 14.5t20.5 25.5t8 38.5v106zM244 746h138l-98 -144h-94z" />
    <glyph glyph-name="acircumflex" unicode="&#xe2;" horiz-adv-x="481" 
d="M45 373v13q0 46 15 78t40.5 51.5t60 28t73.5 8.5q61 0 99.5 -12t59.5 -34t28.5 -52.5t7.5 -66.5v-283q0 -38 3.5 -59t13.5 -45h-132q-7 13 -10.5 27.5t-6.5 28.5h-2q-24 -42 -55.5 -56t-81.5 -14q-36 0 -61 14t-40 36t-22 49.5t-7 54.5q0 38 8 65.5t24.5 47t42 32.5
t61.5 23l78 21q31 8 43 22t12 41q0 31 -14.5 48.5t-49.5 17.5q-32 0 -48 -19t-16 -51v-15h-124zM297 269q-14 -11 -30 -17.5t-29 -9.5q-42 -9 -60 -30t-18 -57q0 -31 12 -53t40 -22q14 0 29 4.5t27.5 14.5t20.5 25.5t8 38.5v106zM168 746h144l78 -144h-106l-46 85l-48 -85
h-100z" />
    <glyph glyph-name="atilde" unicode="&#xe3;" horiz-adv-x="481" 
d="M45 373v13q0 46 15 78t40.5 51.5t60 28t73.5 8.5q61 0 99.5 -12t59.5 -34t28.5 -52.5t7.5 -66.5v-283q0 -38 3.5 -59t13.5 -45h-132q-7 13 -10.5 27.5t-6.5 28.5h-2q-24 -42 -55.5 -56t-81.5 -14q-36 0 -61 14t-40 36t-22 49.5t-7 54.5q0 38 8 65.5t24.5 47t42 32.5
t61.5 23l78 21q31 8 43 22t12 41q0 31 -14.5 48.5t-49.5 17.5q-32 0 -48 -19t-16 -51v-15h-124zM297 269q-14 -11 -30 -17.5t-29 -9.5q-42 -9 -60 -30t-18 -57q0 -31 12 -53t40 -22q14 0 29 4.5t27.5 14.5t20.5 25.5t8 38.5v106zM85 611q8 60 31.5 92t61.5 32q28 0 43 -7
l48 -21q15 -6 30 -6q14 0 21 13t7 23h72q-5 -54 -30 -89t-63 -35q-16 0 -32 5.5t-31.5 11.5l-29.5 11.5t-26 5.5q-25 0 -32 -36h-70z" />
    <glyph glyph-name="adieresis" unicode="&#xe4;" horiz-adv-x="481" 
d="M45 373v13q0 46 15 78t40.5 51.5t60 28t73.5 8.5q61 0 99.5 -12t59.5 -34t28.5 -52.5t7.5 -66.5v-283q0 -38 3.5 -59t13.5 -45h-132q-7 13 -10.5 27.5t-6.5 28.5h-2q-24 -42 -55.5 -56t-81.5 -14q-36 0 -61 14t-40 36t-22 49.5t-7 54.5q0 38 8 65.5t24.5 47t42 32.5
t61.5 23l78 21q31 8 43 22t12 41q0 31 -14.5 48.5t-49.5 17.5q-32 0 -48 -19t-16 -51v-15h-124zM297 269q-14 -11 -30 -17.5t-29 -9.5q-42 -9 -60 -30t-18 -57q0 -31 12 -53t40 -22q14 0 29 4.5t27.5 14.5t20.5 25.5t8 38.5v106zM271 733h112v-118h-112v118zM99 733h112
v-118h-112v118z" />
    <glyph glyph-name="amacron" unicode="&#x101;" horiz-adv-x="481" 
d="M45 373v13q0 46 15 78t40.5 51.5t60 28t73.5 8.5q61 0 99.5 -12t59.5 -34t28.5 -52.5t7.5 -66.5v-283q0 -38 3.5 -59t13.5 -45h-132q-7 13 -10.5 27.5t-6.5 28.5h-2q-24 -42 -55.5 -56t-81.5 -14q-36 0 -61 14t-40 36t-22 49.5t-7 54.5q0 38 8 65.5t24.5 47t42 32.5
t61.5 23l78 21q31 8 43 22t12 41q0 31 -14.5 48.5t-49.5 17.5q-32 0 -48 -19t-16 -51v-15h-124zM297 269q-14 -11 -30 -17.5t-29 -9.5q-42 -9 -60 -30t-18 -57q0 -31 12 -53t40 -22q14 0 29 4.5t27.5 14.5t20.5 25.5t8 38.5v106zM390 712v-76h-294v76h294z" />
    <glyph glyph-name="abreve" unicode="&#x103;" horiz-adv-x="481" 
d="M45 373v13q0 46 15 78t40.5 51.5t60 28t73.5 8.5q61 0 99.5 -12t59.5 -34t28.5 -52.5t7.5 -66.5v-283q0 -38 3.5 -59t13.5 -45h-132q-7 13 -10.5 27.5t-6.5 28.5h-2q-24 -42 -55.5 -56t-81.5 -14q-36 0 -61 14t-40 36t-22 49.5t-7 54.5q0 38 8 65.5t24.5 47t42 32.5
t61.5 23l78 21q31 8 43 22t12 41q0 31 -14.5 48.5t-49.5 17.5q-32 0 -48 -19t-16 -51v-15h-124zM297 269q-14 -11 -30 -17.5t-29 -9.5q-42 -9 -60 -30t-18 -57q0 -31 12 -53t40 -22q14 0 29 4.5t27.5 14.5t20.5 25.5t8 38.5v106zM170 745q3 -29 24 -47t50 -18t50 18t24 47
h65q0 -20 -6.5 -44.5t-22.5 -46t-43 -36t-67 -14.5q-41 0 -67.5 14.5t-42.5 36t-22.5 46t-6.5 44.5h65z" />
    <glyph glyph-name="aring" unicode="&#xe5;" horiz-adv-x="481" 
d="M45 373v13q0 46 15 78t40.5 51.5t60 28t73.5 8.5q61 0 99.5 -12t59.5 -34t28.5 -52.5t7.5 -66.5v-283q0 -38 3.5 -59t13.5 -45h-132q-7 13 -10.5 27.5t-6.5 28.5h-2q-24 -42 -55.5 -56t-81.5 -14q-36 0 -61 14t-40 36t-22 49.5t-7 54.5q0 38 8 65.5t24.5 47t42 32.5
t61.5 23l78 21q31 8 43 22t12 41q0 31 -14.5 48.5t-49.5 17.5q-32 0 -48 -19t-16 -51v-15h-124zM297 269q-14 -11 -30 -17.5t-29 -9.5q-42 -9 -60 -30t-18 -57q0 -31 12 -53t40 -22q14 0 29 4.5t27.5 14.5t20.5 25.5t8 38.5v106zM180 690q0 -24 16.5 -40.5t40.5 -16.5
t40.5 16.5t16.5 40.5t-16.5 40.5t-40.5 16.5t-40.5 -16.5t-16.5 -40.5zM124 690q0 24 9 44.5t24.5 35t36 22.5t43.5 8t43.5 -8t36 -22.5t24.5 -35t9 -44.5q0 -50 -33 -79t-80 -29q-48 0 -80.5 29t-32.5 79z" />
    <glyph glyph-name="aogonek" unicode="&#x105;" horiz-adv-x="481" 
d="M409 -182q-26 -20 -48.5 -27.5t-54.5 -7.5q-26 0 -43 7.5t-26.5 18.5t-13 25t-3.5 28q0 37 27.5 72t65.5 66q-6 13 -9.5 27.5t-6.5 28.5h-2q-24 -42 -55.5 -56t-81.5 -14q-36 0 -61 14t-40 36t-22 49.5t-7 54.5q0 38 8 65.5t24.5 47t42 32.5t61.5 23l78 21q31 8 43 22
t12 41q0 31 -14.5 48.5t-49.5 17.5q-32 0 -48 -19t-16 -51v-15h-124v13q0 46 15 78t40.5 51.5t60 28t73.5 8.5q61 0 99.5 -12t59.5 -34t28.5 -52.5t7.5 -66.5v-283q0 -38 3.5 -59t13.5 -45h-66l2 1h-1q-27 -25 -40 -40q-41 -50 -41 -83q0 -31 25 -31q13 0 25 3.5t32 16.5z
M297 269q-14 -11 -30 -17.5t-29 -9.5q-42 -9 -60 -30t-18 -57q0 -31 12 -53t40 -22q14 0 29 4.5t27.5 14.5t20.5 25.5t8 38.5v106z" />
    <glyph glyph-name="ae" unicode="&#xe6;" horiz-adv-x="722" 
d="M44 373v13q0 46 15 78t40.5 51.5t60 28t73.5 8.5q54 0 85.5 -13.5t53.5 -50.5q15 31 48.5 47.5t78.5 16.5q60 0 98 -19.5t60 -55t30 -86t8 -112.5v-31h-271v-43q0 -24 3.5 -46.5t11.5 -40t20.5 -28t31.5 -10.5q34 0 50 25t22 76h124q-4 -94 -50.5 -144.5t-143.5 -50.5
q-37 0 -64.5 8t-47 21t-31.5 29.5t-19 34.5q-16 -30 -33.5 -48.5t-38 -28t-45.5 -13t-57 -3.5q-36 0 -61 14t-40 36t-22 49.5t-7 54.5q0 38 8 65.5t24.5 47t42 32.5t61.5 23l78 21q31 8 43 22t12 41q0 31 -14.5 48.5t-49.5 17.5q-32 0 -48 -19t-16 -51v-15h-124zM563 330
q-2 63 -14.5 95.5t-54.5 32.5q-20 0 -33.5 -9.5t-21.5 -25t-11.5 -34.5t-3.5 -38v-21h139zM296 269q-14 -11 -30 -17.5t-29 -9.5q-42 -9 -60 -30t-18 -57q0 -31 12 -53t40 -22q14 0 29 4.5t27.5 14.5t20.5 25.5t8 38.5v106z" />
    <glyph glyph-name="cacute" unicode="&#x107;" horiz-adv-x="463" 
d="M305 344q0 19 -2.5 38.5t-9 35t-19 25t-31.5 9.5q-26 0 -41.5 -11.5t-23.5 -34t-11 -57.5t-3 -81q0 -50 3 -85.5t11 -58.5t22.5 -33.5t37.5 -10.5q35 0 51 30t16 96h132q0 -106 -47.5 -163t-157.5 -57q-52 0 -90.5 14t-64 46.5t-38.5 87t-13 135.5q0 83 16 137.5t45 87
t69 45.5t88 13q96 0 144.5 -56t48.5 -152h-132zM245 746h138l-98 -144h-94z" />
    <glyph glyph-name="ccircumflex" unicode="&#x109;" horiz-adv-x="463" 
d="M305 344q0 19 -2.5 38.5t-9 35t-19 25t-31.5 9.5q-26 0 -41.5 -11.5t-23.5 -34t-11 -57.5t-3 -81q0 -50 3 -85.5t11 -58.5t22.5 -33.5t37.5 -10.5q35 0 51 30t16 96h132q0 -106 -47.5 -163t-157.5 -57q-52 0 -90.5 14t-64 46.5t-38.5 87t-13 135.5q0 83 16 137.5t45 87
t69 45.5t88 13q96 0 144.5 -56t48.5 -152h-132zM170 746h144l78 -144h-106l-46 85l-48 -85h-100z" />
    <glyph glyph-name="ccaron" unicode="&#x10d;" horiz-adv-x="463" 
d="M305 344q0 19 -2.5 38.5t-9 35t-19 25t-31.5 9.5q-26 0 -41.5 -11.5t-23.5 -34t-11 -57.5t-3 -81q0 -50 3 -85.5t11 -58.5t22.5 -33.5t37.5 -10.5q35 0 51 30t16 96h132q0 -106 -47.5 -163t-157.5 -57q-52 0 -90.5 14t-64 46.5t-38.5 87t-13 135.5q0 83 16 137.5t45 87
t69 45.5t88 13q96 0 144.5 -56t48.5 -152h-132zM93 746h106l46 -85l48 85h100l-78 -144h-144z" />
    <glyph glyph-name="cdotaccent" unicode="&#x10b;" horiz-adv-x="463" 
d="M305 344q0 19 -2.5 38.5t-9 35t-19 25t-31.5 9.5q-26 0 -41.5 -11.5t-23.5 -34t-11 -57.5t-3 -81q0 -50 3 -85.5t11 -58.5t22.5 -33.5t37.5 -10.5q35 0 51 30t16 96h132q0 -106 -47.5 -163t-157.5 -57q-52 0 -90.5 14t-64 46.5t-38.5 87t-13 135.5q0 83 16 137.5t45 87
t69 45.5t88 13q96 0 144.5 -56t48.5 -152h-132zM296 733v-118h-112v118h112z" />
    <glyph glyph-name="ccedilla" unicode="&#xe7;" horiz-adv-x="463" 
d="M305 344q0 19 -2.5 38.5t-9 35t-19 25t-31.5 9.5q-26 0 -41.5 -11.5t-23.5 -34t-11 -57.5t-3 -81q0 -50 3 -85.5t11 -58.5t22.5 -33.5t37.5 -10.5q35 0 51 30t16 96h132q0 -106 -48 -163q-40 -48 -128 -56l-29 -45q9 3 16.5 4t16.5 1q16 0 31.5 -4.5t27.5 -13.5t19 -22.5
t6 -31.5q0 -45 -32.5 -68.5t-93.5 -23.5q-33 0 -60.5 6t-39.5 13l19 46q11 -6 30.5 -10.5t38.5 -4.5q21 0 35.5 9t14.5 24t-12 23t-32 9q-11 0 -18.5 -1.5t-15.5 -4.5l-22 20l48 75q-19 1 -36 4.5t-32 8.5q-57 21 -86 84t-29 185q0 83 16 137.5t45 87t69 45.5t88 13
q96 0 144.5 -56t48.5 -152h-132z" />
    <glyph glyph-name="dcaron" unicode="&#x10f;" horiz-adv-x="607" 
d="M322 57h-2q-23 -38 -51.5 -54.5t-70.5 -16.5q-85 0 -125 66.5t-40 216.5t40 216.5t125 66.5q39 0 66.5 -16t49.5 -48h2v226h138v-714h-132v57zM171 269q0 -88 13.5 -132.5t58.5 -44.5q46 0 59.5 44.5t13.5 132.5t-13.5 132.5t-59.5 44.5q-45 0 -58.5 -44.5t-13.5 -132.5z
M525 714h120l-63 -144h-90z" />
    <glyph glyph-name="dcroat" unicode="&#x111;" horiz-adv-x="540" 
d="M322 57h-2q-23 -38 -51.5 -54.5t-70.5 -16.5q-85 0 -125 66.5t-40 216.5t40 216.5t125 66.5q39 0 66.5 -16t49.5 -48h2v98h-110v61h110v67h138v-67h86v-61h-86v-586h-132v57zM171 269q0 -88 13.5 -132.5t58.5 -44.5q46 0 59.5 44.5t13.5 132.5t-13.5 132.5t-59.5 44.5
q-45 0 -58.5 -44.5t-13.5 -132.5z" />
    <glyph glyph-name="eth" unicode="&#xf0;" 
d="M66 625l76 45l-33.5 33l-32.5 31l104 61l34.5 -31.5l32.5 -31.5l75 45l43 -42l-77 -45q40 -44 70.5 -89.5t51.5 -96t31.5 -108.5t10.5 -127t-11 -122t-36 -88.5t-65.5 -54t-99.5 -18.5q-62 -1 -103 16.5t-65 53.5t-34 89t-10 124q0 60 10 108.5t31 83t54 53t79 18.5
q17 0 35 -6t35 -20l2 2q-18 29 -42 59.5t-50 60.5l-77 -45zM166 262q0 -40 2 -73.5t9.5 -57.5t22 -37.5t40.5 -13.5q42 0 58 42.5t16 139.5q0 93 -16 134.5t-58 41.5q-26 0 -40.5 -13.5t-22 -37t-9.5 -56t-2 -69.5z" />
    <glyph glyph-name="egrave" unicode="&#xe8;" horiz-adv-x="463" 
d="M164 248v-43q0 -24 3.5 -46.5t11.5 -40t21 -28t32 -10.5q35 0 51 25t22 76h124q-4 -94 -50 -144.5t-145 -50.5q-75 0 -117 26t-62 67.5t-24.5 93t-4.5 101.5q0 54 7.5 104t30 89t64.5 62t112 23q60 0 98.5 -19.5t60.5 -55t30 -86t8 -112.5v-31h-273zM305 330
q-1 31 -4 54.5t-10.5 40t-21 25t-34.5 8.5t-34.5 -9.5t-21.5 -25t-11.5 -34.5t-3.5 -38v-21h141zM208 602l-98 144h138l54 -144h-94z" />
    <glyph glyph-name="eacute" unicode="&#xe9;" horiz-adv-x="463" 
d="M164 248v-43q0 -24 3.5 -46.5t11.5 -40t21 -28t32 -10.5q35 0 51 25t22 76h124q-4 -94 -50 -144.5t-145 -50.5q-75 0 -117 26t-62 67.5t-24.5 93t-4.5 101.5q0 54 7.5 104t30 89t64.5 62t112 23q60 0 98.5 -19.5t60.5 -55t30 -86t8 -112.5v-31h-273zM305 330
q-1 31 -4 54.5t-10.5 40t-21 25t-34.5 8.5t-34.5 -9.5t-21.5 -25t-11.5 -34.5t-3.5 -38v-21h141zM244 746h138l-98 -144h-94z" />
    <glyph glyph-name="ecircumflex" unicode="&#xea;" horiz-adv-x="463" 
d="M164 248v-43q0 -24 3.5 -46.5t11.5 -40t21 -28t32 -10.5q35 0 51 25t22 76h124q-4 -94 -50 -144.5t-145 -50.5q-75 0 -117 26t-62 67.5t-24.5 93t-4.5 101.5q0 54 7.5 104t30 89t64.5 62t112 23q60 0 98.5 -19.5t60.5 -55t30 -86t8 -112.5v-31h-273zM305 330
q-1 31 -4 54.5t-10.5 40t-21 25t-34.5 8.5t-34.5 -9.5t-21.5 -25t-11.5 -34.5t-3.5 -38v-21h141zM168 746h144l78 -144h-106l-46 85l-48 -85h-100z" />
    <glyph glyph-name="ecaron" unicode="&#x11b;" horiz-adv-x="463" 
d="M164 248v-43q0 -24 3.5 -46.5t11.5 -40t21 -28t32 -10.5q35 0 51 25t22 76h124q-4 -94 -50 -144.5t-145 -50.5q-75 0 -117 26t-62 67.5t-24.5 93t-4.5 101.5q0 54 7.5 104t30 89t64.5 62t112 23q60 0 98.5 -19.5t60.5 -55t30 -86t8 -112.5v-31h-273zM305 330
q-1 31 -4 54.5t-10.5 40t-21 25t-34.5 8.5t-34.5 -9.5t-21.5 -25t-11.5 -34.5t-3.5 -38v-21h141zM86 746h106l46 -85l48 85h100l-78 -144h-144z" />
    <glyph glyph-name="edieresis" unicode="&#xeb;" horiz-adv-x="463" 
d="M164 248v-43q0 -24 3.5 -46.5t11.5 -40t21 -28t32 -10.5q35 0 51 25t22 76h124q-4 -94 -50 -144.5t-145 -50.5q-75 0 -117 26t-62 67.5t-24.5 93t-4.5 101.5q0 54 7.5 104t30 89t64.5 62t112 23q60 0 98.5 -19.5t60.5 -55t30 -86t8 -112.5v-31h-273zM305 330
q-1 31 -4 54.5t-10.5 40t-21 25t-34.5 8.5t-34.5 -9.5t-21.5 -25t-11.5 -34.5t-3.5 -38v-21h141zM270 733h112v-118h-112v118zM98 733h112v-118h-112v118z" />
    <glyph glyph-name="emacron" unicode="&#x113;" horiz-adv-x="463" 
d="M164 248v-43q0 -24 3.5 -46.5t11.5 -40t21 -28t32 -10.5q35 0 51 25t22 76h124q-4 -94 -50 -144.5t-145 -50.5q-75 0 -117 26t-62 67.5t-24.5 93t-4.5 101.5q0 54 7.5 104t30 89t64.5 62t112 23q60 0 98.5 -19.5t60.5 -55t30 -86t8 -112.5v-31h-273zM305 330
q-1 31 -4 54.5t-10.5 40t-21 25t-34.5 8.5t-34.5 -9.5t-21.5 -25t-11.5 -34.5t-3.5 -38v-21h141zM384 712v-76h-294v76h294z" />
    <glyph glyph-name="ebreve" unicode="&#x115;" horiz-adv-x="463" 
d="M164 248v-43q0 -24 3.5 -46.5t11.5 -40t21 -28t32 -10.5q35 0 51 25t22 76h124q-4 -94 -50 -144.5t-145 -50.5q-75 0 -117 26t-62 67.5t-24.5 93t-4.5 101.5q0 54 7.5 104t30 89t64.5 62t112 23q60 0 98.5 -19.5t60.5 -55t30 -86t8 -112.5v-31h-273zM305 330
q-1 31 -4 54.5t-10.5 40t-21 25t-34.5 8.5t-34.5 -9.5t-21.5 -25t-11.5 -34.5t-3.5 -38v-21h141zM163 745q3 -29 24 -47t50 -18t50 18t24 47h65q0 -20 -6.5 -44.5t-22.5 -46t-43 -36t-67 -14.5q-41 0 -67.5 14.5t-42.5 36t-22.5 46t-6.5 44.5h65z" />
    <glyph glyph-name="edotaccent" unicode="&#x117;" horiz-adv-x="463" 
d="M164 248v-43q0 -24 3.5 -46.5t11.5 -40t21 -28t32 -10.5q35 0 51 25t22 76h124q-4 -94 -50 -144.5t-145 -50.5q-75 0 -117 26t-62 67.5t-24.5 93t-4.5 101.5q0 54 7.5 104t30 89t64.5 62t112 23q60 0 98.5 -19.5t60.5 -55t30 -86t8 -112.5v-31h-273zM305 330
q-1 31 -4 54.5t-10.5 40t-21 25t-34.5 8.5t-34.5 -9.5t-21.5 -25t-11.5 -34.5t-3.5 -38v-21h141zM294 733v-118h-112v118h112z" />
    <glyph glyph-name="eogonek" unicode="&#x119;" horiz-adv-x="463" 
d="M331 -182q-28 -20 -53.5 -27.5t-60.5 -7.5q-29 0 -48 7.5t-29.5 18.5t-14.5 25t-4 28q0 37 33 75q12 14 27.5 26.5t34.5 23.5q-60 1 -99 25q-32 20 -50 49t-27 63.5t-11.5 72.5t-2.5 77q0 54 7.5 104t30 89t64.5 62t112 23q60 0 98.5 -19.5t60.5 -55t30 -86t8 -112.5v-31
h-273v-43q0 -24 3.5 -46.5t11.5 -40t21 -28t32 -10.5q35 0 51 25t22 76h124q-5 -95 -50 -145q-28 -31 -78 -43l-23 -18l-18 -15q-29 -27 -39.5 -45.5t-10.5 -36.5q0 -31 28 -31q14 0 27.5 3.5t35.5 16.5zM305 330q-1 31 -4 54.5t-10.5 40t-21 25t-34.5 8.5t-34.5 -9.5
t-21.5 -25t-11.5 -34.5t-3.5 -38v-21h141z" />
    <glyph glyph-name="gcircumflex" unicode="&#x11d;" horiz-adv-x="500" 
d="M173 252q0 -28 2.5 -53t10 -44.5t21 -31t35.5 -11.5t36.5 11.5t23 31.5t12 48.5t3.5 62.5q0 98 -15.5 139t-56.5 41q-23 0 -37 -10t-22 -32.5t-10.5 -60t-2.5 -91.5zM449 538v-511q0 -108 -51.5 -159.5t-172.5 -51.5q-88 0 -135.5 37.5t-47.5 106.5h132q0 -26 21 -41
q10 -7 21.5 -11t24.5 -4q42 0 59 27.5t17 69.5v71h-2q-21 -30 -51.5 -48t-63.5 -18q-82 0 -123.5 62.5t-41.5 209.5q0 47 5.5 96t23 88.5t51 64.5t89.5 25q29 0 60 -16t51 -58h2v60h132zM188 746h144l78 -144h-106l-46 85l-48 -85h-100z" />
    <glyph glyph-name="gbreve" unicode="&#x11f;" horiz-adv-x="500" 
d="M173 252q0 -28 2.5 -53t10 -44.5t21 -31t35.5 -11.5t36.5 11.5t23 31.5t12 48.5t3.5 62.5q0 98 -15.5 139t-56.5 41q-23 0 -37 -10t-22 -32.5t-10.5 -60t-2.5 -91.5zM449 538v-511q0 -108 -51.5 -159.5t-172.5 -51.5q-88 0 -135.5 37.5t-47.5 106.5h132q0 -26 21 -41
q10 -7 21.5 -11t24.5 -4q42 0 59 27.5t17 69.5v71h-2q-21 -30 -51.5 -48t-63.5 -18q-82 0 -123.5 62.5t-41.5 209.5q0 47 5.5 96t23 88.5t51 64.5t89.5 25q29 0 60 -16t51 -58h2v60h132zM179 745q3 -29 24 -47t50 -18t50 18t24 47h65q0 -20 -6.5 -44.5t-22.5 -46t-43 -36
t-67 -14.5q-41 0 -67.5 14.5t-42.5 36t-22.5 46t-6.5 44.5h65z" />
    <glyph glyph-name="gdotaccent" unicode="&#x121;" horiz-adv-x="500" 
d="M173 252q0 -28 2.5 -53t10 -44.5t21 -31t35.5 -11.5t36.5 11.5t23 31.5t12 48.5t3.5 62.5q0 98 -15.5 139t-56.5 41q-23 0 -37 -10t-22 -32.5t-10.5 -60t-2.5 -91.5zM449 538v-511q0 -108 -51.5 -159.5t-172.5 -51.5q-88 0 -135.5 37.5t-47.5 106.5h132q0 -26 21 -41
q10 -7 21.5 -11t24.5 -4q42 0 59 27.5t17 69.5v71h-2q-21 -30 -51.5 -48t-63.5 -18q-82 0 -123.5 62.5t-41.5 209.5q0 47 5.5 96t23 88.5t51 64.5t89.5 25q29 0 60 -16t51 -58h2v60h132zM310 733v-118h-112v118h112z" />
    <glyph glyph-name="gcommaaccent" unicode="&#x123;" horiz-adv-x="500" 
d="M173 252q0 -28 2.5 -53t10 -44.5t21 -31t35.5 -11.5t36.5 11.5t23 31.5t12 48.5t3.5 62.5q0 98 -15.5 139t-56.5 41q-23 0 -37 -10t-22 -32.5t-10.5 -60t-2.5 -91.5zM449 538v-511q0 -108 -51.5 -159.5t-172.5 -51.5q-88 0 -135.5 37.5t-47.5 106.5h132q0 -26 21 -41
q10 -7 21.5 -11t24.5 -4q42 0 59 27.5t17 69.5v71h-2q-21 -30 -51.5 -48t-63.5 -18q-82 0 -123.5 62.5t-41.5 209.5q0 47 5.5 96t23 88.5t51 64.5t89.5 25q29 0 60 -16t51 -58h2v60h132zM202 596v97q0 34 8.5 54t22.5 31t31.5 15t34.5 6v-36q-17 -5 -26 -15.5t-10 -33.5h51
v-118h-112z" />
    <glyph glyph-name="hcircumflex" unicode="&#x125;" horiz-adv-x="500" 
d="M46 714h138v-231h2q40 69 131 69q66 0 101.5 -36t35.5 -117v-399h-138v371q0 42 -14 58.5t-45 16.5q-73 0 -73 -89v-357h-138v714zM178 900h144l78 -144h-106l-46 85l-48 -85h-100z" />
    <glyph glyph-name="hbar" unicode="&#x127;" horiz-adv-x="540" 
d="M86 714h138v-67h111v-61h-111v-103h2q40 69 131 69q66 0 101.5 -36t35.5 -117v-399h-138v371q0 42 -14 58.5t-45 16.5q-73 0 -73 -89v-357h-138v586h-86v61h86v67z" />
    <glyph glyph-name="dotlessi" unicode="&#x131;" horiz-adv-x="240" 
d="M51 538h138v-538h-138v538z" />
    <glyph glyph-name="igrave" unicode="&#xec;" horiz-adv-x="240" 
d="M51 538h138v-538h-138v538zM94 602l-98 144h138l54 -144h-94z" />
    <glyph glyph-name="iacute" unicode="&#xed;" horiz-adv-x="240" 
d="M51 538h138v-538h-138v538zM105 746h138l-98 -144h-94z" />
    <glyph glyph-name="icircumflex" unicode="&#xee;" horiz-adv-x="240" 
d="M51 538h138v-538h-138v538zM49 746h144l78 -144h-106l-46 85l-48 -85h-100z" />
    <glyph glyph-name="itilde" unicode="&#x129;" horiz-adv-x="240" 
d="M51 538h138v-538h-138v538zM-37 611q8 60 31.5 92t61.5 32q28 0 43 -7l48 -21q15 -6 30 -6q14 0 21 13t7 23h72q-5 -54 -30 -89t-63 -35q-16 0 -32 5.5t-31.5 11.5l-29.5 11.5t-26 5.5q-25 0 -32 -36h-70z" />
    <glyph glyph-name="idieresis" unicode="&#xef;" horiz-adv-x="240" 
d="M51 538h138v-538h-138v538zM150 733h112v-118h-112v118zM-22 733h112v-118h-112v118z" />
    <glyph glyph-name="imacron" unicode="&#x12b;" horiz-adv-x="240" 
d="M51 538h138v-538h-138v538zM267 712v-76h-294v76h294z" />
    <glyph glyph-name="iogonek" unicode="&#x12f;" horiz-adv-x="240" 
d="M208 -182q-28 -20 -53.5 -27.5t-60.5 -7.5q-29 0 -48 7.5t-29.5 18.5t-14.5 25t-4 28q0 37 33 74.5t90 63.5h-70v538h138v-538h-1q-31 -23 -50.5 -40.5t-31 -31.5t-15.5 -26t-4 -24q0 -31 28 -31q14 0 27.5 3.5t35.5 16.5zM51 722h138v-118h-138v118z" />
    <glyph glyph-name="dotlessj" horiz-adv-x="240" 
d="M51 538h138v-575q0 -34 -7.5 -60t-25.5 -43.5t-48.5 -26.5t-76.5 -9q-12 0 -26.5 0.5t-29.5 1.5v100q6 -2 11 -2h11q18 0 29 5t16.5 15.5t7 26.5t1.5 39v528z" />
    <glyph glyph-name="jcircumflex" unicode="&#x135;" horiz-adv-x="240" 
d="M51 538h138v-575q0 -34 -7.5 -60t-25.5 -43.5t-48.5 -26.5t-76.5 -9q-12 0 -26.5 0.5t-29.5 1.5v100q6 -2 11 -2h11q18 0 29 5t16.5 15.5t7 26.5t1.5 39v528zM45 746h144l78 -144h-106l-46 85l-48 -85h-100z" />
    <glyph glyph-name="kcommaaccent" unicode="&#x137;" horiz-adv-x="500" 
d="M189 714v-377h2l139 201h152l-155 -212l178 -326h-152l-115 221l-49 -64v-157h-138v714h138zM326 -50v-97q0 -34 -8.5 -54t-22.5 -31t-31.5 -15t-34.5 -6v36q17 5 26 15.5t10 33.5h-51v118h112z" />
    <glyph glyph-name="lacute" unicode="&#x13a;" horiz-adv-x="240" 
d="M51 714h138v-714h-138v714zM106 900h138l-98 -144h-94z" />
    <glyph glyph-name="lcaron" unicode="&#x13e;" horiz-adv-x="342" 
d="M51 714h138v-714h-138v714zM260 714h120l-63 -144h-90z" />
    <glyph glyph-name="lcommaaccent" unicode="&#x13c;" horiz-adv-x="240" 
d="M51 714h138v-714h-138v714zM179 -50v-97q0 -34 -8.5 -54t-22.5 -31t-31.5 -15t-34.5 -6v36q17 5 26 15.5t10 33.5h-51v118h112z" />
    <glyph glyph-name="lslash" unicode="&#x142;" horiz-adv-x="240" 
d="M51 282l-63 -42v88l63 42v344h138v-253l63 41v-88l-63 -41v-373h-138v282z" />
    <glyph glyph-name="ldot" unicode="&#x140;" horiz-adv-x="397" 
d="M51 714h138v-714h-138v714zM357 539v-118h-112v118h112z" />
    <glyph glyph-name="nacute" unicode="&#x144;" horiz-adv-x="500" 
d="M46 538h132v-63h2q22 40 57 58.5t80 18.5q66 0 101.5 -36t35.5 -117v-399h-138v371q0 42 -14 58.5t-45 16.5q-73 0 -73 -89v-357h-138v538zM249 746h138l-98 -144h-94z" />
    <glyph glyph-name="ncaron" unicode="&#x148;" horiz-adv-x="500" 
d="M46 538h132v-63h2q22 40 57 58.5t80 18.5q66 0 101.5 -36t35.5 -117v-399h-138v371q0 42 -14 58.5t-45 16.5q-73 0 -73 -89v-357h-138v538zM98 746h106l46 -85l48 85h100l-78 -144h-144z" />
    <glyph glyph-name="ntilde" unicode="&#xf1;" horiz-adv-x="500" 
d="M46 538h132v-63h2q22 40 57 58.5t80 18.5q66 0 101.5 -36t35.5 -117v-399h-138v371q0 42 -14 58.5t-45 16.5q-73 0 -73 -89v-357h-138v538zM86 611q8 60 31.5 92t61.5 32q28 0 43 -7l48 -21q15 -6 30 -6q14 0 21 13t7 23h72q-5 -54 -30 -89t-63 -35q-16 0 -32 5.5
t-31.5 11.5l-29.5 11.5t-26 5.5q-25 0 -32 -36h-70z" />
    <glyph glyph-name="ncommaaccent" unicode="&#x146;" horiz-adv-x="500" 
d="M46 538h132v-63h2q22 40 57 58.5t80 18.5q66 0 101.5 -36t35.5 -117v-399h-138v371q0 42 -14 58.5t-45 16.5q-73 0 -73 -89v-357h-138v538zM308 -50v-97q0 -34 -8.5 -54t-22.5 -31t-31.5 -15t-34.5 -6v36q17 5 26 15.5t10 33.5h-51v118h112z" />
    <glyph glyph-name="ograve" unicode="&#xf2;" 
d="M28 269q0 69 11 122t36 88.5t65.5 54t99.5 18.5q62 1 103 -16.5t65 -53.5t34 -89.5t10 -123.5q0 -69 -11 -122t-36 -88.5t-65.5 -54t-99.5 -18.5q-62 -1 -103 16.5t-65 53.5t-34 89t-10 124zM166 269q0 -41 2 -76t9.5 -60t22 -39t40.5 -14q42 0 58 44t16 145t-16 145
t-58 44q-26 0 -40.5 -14t-22 -39t-9.5 -60t-2 -76zM205 602l-98 144h138l54 -144h-94z" />
    <glyph glyph-name="oacute" unicode="&#xf3;" 
d="M28 269q0 69 11 122t36 88.5t65.5 54t99.5 18.5q62 1 103 -16.5t65 -53.5t34 -89.5t10 -123.5q0 -69 -11 -122t-36 -88.5t-65.5 -54t-99.5 -18.5q-62 -1 -103 16.5t-65 53.5t-34 89t-10 124zM166 269q0 -41 2 -76t9.5 -60t22 -39t40.5 -14q42 0 58 44t16 145t-16 145
t-58 44q-26 0 -40.5 -14t-22 -39t-9.5 -60t-2 -76zM245 746h138l-98 -144h-94z" />
    <glyph glyph-name="ocircumflex" unicode="&#xf4;" 
d="M28 269q0 69 11 122t36 88.5t65.5 54t99.5 18.5q62 1 103 -16.5t65 -53.5t34 -89.5t10 -123.5q0 -69 -11 -122t-36 -88.5t-65.5 -54t-99.5 -18.5q-62 -1 -103 16.5t-65 53.5t-34 89t-10 124zM166 269q0 -41 2 -76t9.5 -60t22 -39t40.5 -14q42 0 58 44t16 145t-16 145
t-58 44q-26 0 -40.5 -14t-22 -39t-9.5 -60t-2 -76zM168 746h144l78 -144h-106l-46 85l-48 -85h-100z" />
    <glyph glyph-name="otilde" unicode="&#xf5;" 
d="M28 269q0 69 11 122t36 88.5t65.5 54t99.5 18.5q62 1 103 -16.5t65 -53.5t34 -89.5t10 -123.5q0 -69 -11 -122t-36 -88.5t-65.5 -54t-99.5 -18.5q-62 -1 -103 16.5t-65 53.5t-34 89t-10 124zM166 269q0 -41 2 -76t9.5 -60t22 -39t40.5 -14q42 0 58 44t16 145t-16 145
t-58 44q-26 0 -40.5 -14t-22 -39t-9.5 -60t-2 -76zM83 611q8 60 31.5 92t61.5 32q28 0 43 -7l48 -21q15 -6 30 -6q14 0 21 13t7 23h72q-5 -54 -30 -89t-63 -35q-16 0 -32 5.5t-31.5 11.5l-29.5 11.5t-26 5.5q-25 0 -32 -36h-70z" />
    <glyph glyph-name="odieresis" unicode="&#xf6;" 
d="M28 269q0 69 11 122t36 88.5t65.5 54t99.5 18.5q62 1 103 -16.5t65 -53.5t34 -89.5t10 -123.5q0 -69 -11 -122t-36 -88.5t-65.5 -54t-99.5 -18.5q-62 -1 -103 16.5t-65 53.5t-34 89t-10 124zM166 269q0 -41 2 -76t9.5 -60t22 -39t40.5 -14q42 0 58 44t16 145t-16 145
t-58 44q-26 0 -40.5 -14t-22 -39t-9.5 -60t-2 -76zM270 733h112v-118h-112v118zM98 733h112v-118h-112v118z" />
    <glyph glyph-name="omacron" unicode="&#x14d;" 
d="M28 269q0 69 11 122t36 88.5t65.5 54t99.5 18.5q62 1 103 -16.5t65 -53.5t34 -89.5t10 -123.5q0 -69 -11 -122t-36 -88.5t-65.5 -54t-99.5 -18.5q-62 -1 -103 16.5t-65 53.5t-34 89t-10 124zM166 269q0 -41 2 -76t9.5 -60t22 -39t40.5 -14q42 0 58 44t16 145t-16 145
t-58 44q-26 0 -40.5 -14t-22 -39t-9.5 -60t-2 -76zM386 712v-76h-294v76h294z" />
    <glyph glyph-name="obreve" unicode="&#x14f;" 
d="M28 269q0 69 11 122t36 88.5t65.5 54t99.5 18.5q62 1 103 -16.5t65 -53.5t34 -89.5t10 -123.5q0 -69 -11 -122t-36 -88.5t-65.5 -54t-99.5 -18.5q-62 -1 -103 16.5t-65 53.5t-34 89t-10 124zM166 269q0 -41 2 -76t9.5 -60t22 -39t40.5 -14q42 0 58 44t16 145t-16 145
t-58 44q-26 0 -40.5 -14t-22 -39t-9.5 -60t-2 -76zM166 745q3 -29 24 -47t50 -18t50 18t24 47h65q0 -20 -6.5 -44.5t-22.5 -46t-43 -36t-67 -14.5q-41 0 -67.5 14.5t-42.5 36t-22.5 46t-6.5 44.5h65z" />
    <glyph glyph-name="ohungarumlaut" unicode="&#x151;" 
d="M28 269q0 69 11 122t36 88.5t65.5 54t99.5 18.5q62 1 103 -16.5t65 -53.5t34 -89.5t10 -123.5q0 -69 -11 -122t-36 -88.5t-65.5 -54t-99.5 -18.5q-62 -1 -103 16.5t-65 53.5t-34 89t-10 124zM166 269q0 -41 2 -76t9.5 -60t22 -39t40.5 -14q42 0 58 44t16 145t-16 145
t-58 44q-26 0 -40.5 -14t-22 -39t-9.5 -60t-2 -76zM326 746h138l-98 -144h-94zM160 746h138l-98 -144h-94z" />
    <glyph glyph-name="oslash" unicode="&#xf8;" 
d="M90 35q-35 34 -48.5 92t-13.5 142q0 69 11 122t36 88.5t65.5 54t99.5 18.5q67 1 109 -21l34 65l44 -23l-37 -70q35 -34 48.5 -92t13.5 -142q0 -69 -11 -122t-36 -88.5t-65.5 -54t-99.5 -18.5q-68 -2 -109 21l-34 -65l-44 23zM186 113q16 -33 54 -33q42 0 58 44t16 145
q0 24 -0.5 44.5t-1.5 37.5h-2zM293 424q-16 34 -53 34q-26 0 -40.5 -14t-22 -39t-9.5 -60t-2 -76v-44q0 -11 0.5 -20.5t1.5 -18.5h2z" />
    <glyph glyph-name="oe" unicode="&#x153;" horiz-adv-x="741" 
d="M580 330q-1 31 -4 54.5t-10.5 40t-21 25t-34.5 8.5t-34.5 -9.5t-21.5 -25t-11.5 -34.5t-3.5 -38v-21h141zM243 80q41 0 56.5 44t15.5 145t-16 145t-58 44q-26 0 -40.5 -14t-22 -39t-9.5 -60t-2 -76t2 -76t9.5 -60t23 -39t41.5 -14zM439 248v-43q0 -24 3.5 -46.5t11.5 -40
t21 -28t32 -10.5q35 0 51 25t22 76h124q-4 -94 -49 -144.5t-138 -50.5q-63 0 -96 24.5t-44 54.5q-14 -38 -55 -58.5t-93 -20.5q-58 0 -96.5 18t-61.5 53.5t-32.5 88.5t-9.5 123q0 69 11 122t36 88.5t65.5 54t99.5 18.5q57 0 90 -18.5t53 -56.5q20 37 55.5 56t75.5 19
q60 0 98.5 -19.5t60.5 -55t30 -86t8 -112.5v-31h-273z" />
    <glyph glyph-name="racute" unicode="&#x155;" horiz-adv-x="333" 
d="M46 538h132v-72h2q21 39 51 62.5t73 23.5q6 0 12.5 -0.5t12.5 -1.5v-132q-11 1 -21.5 1.5t-21.5 0.5q-18 0 -36 -5t-33 -16.5t-24 -30t-9 -45.5v-323h-138v538zM135 746h138l-98 -144h-94z" />
    <glyph glyph-name="rcommaaccent" unicode="&#x157;" horiz-adv-x="333" 
d="M46 538h132v-72h2q21 39 51 62.5t73 23.5q6 0 12.5 -0.5t12.5 -1.5v-132q-11 1 -21.5 1.5t-21.5 0.5q-18 0 -36 -5t-33 -16.5t-24 -30t-9 -45.5v-323h-138v538zM175 -50v-97q0 -34 -8.5 -54t-22.5 -31t-31.5 -15t-34.5 -6v36q17 5 26 15.5t10 33.5h-51v118h112z" />
    <glyph glyph-name="rcaron" unicode="&#x159;" horiz-adv-x="333" 
d="M46 538h132v-72h2q21 39 51 62.5t73 23.5q6 0 12.5 -0.5t12.5 -1.5v-132q-11 1 -21.5 1.5t-21.5 0.5q-18 0 -36 -5t-33 -16.5t-24 -30t-9 -45.5v-323h-138v538zM40 746h106l46 -85l48 85h100l-78 -144h-144z" />
    <glyph glyph-name="sacute" unicode="&#x15b;" horiz-adv-x="444" 
d="M147 176v-18q0 -35 18.5 -56.5t53.5 -21.5q32 0 51 16t19 48q0 26 -15 39.5t-35 21.5l-97 35q-57 20 -86 56.5t-29 93.5q0 33 11 62.5t35 51.5t61.5 35t90.5 13q94 0 139 -40t45 -113v-22h-124q0 42 -13.5 61.5t-47.5 19.5q-26 0 -45.5 -14.5t-19.5 -43.5q0 -20 12.5 -36
t47.5 -27l83 -28q65 -22 92 -57.5t27 -96.5q0 -42 -15 -74t-41.5 -53t-63.5 -31.5t-80 -10.5q-59 0 -97 12t-60.5 34.5t-31.5 54t-9 70.5v19h124zM225 746h138l-98 -144h-94z" />
    <glyph glyph-name="scircumflex" unicode="&#x15d;" horiz-adv-x="444" 
d="M147 176v-18q0 -35 18.5 -56.5t53.5 -21.5q32 0 51 16t19 48q0 26 -15 39.5t-35 21.5l-97 35q-57 20 -86 56.5t-29 93.5q0 33 11 62.5t35 51.5t61.5 35t90.5 13q94 0 139 -40t45 -113v-22h-124q0 42 -13.5 61.5t-47.5 19.5q-26 0 -45.5 -14.5t-19.5 -43.5q0 -20 12.5 -36
t47.5 -27l83 -28q65 -22 92 -57.5t27 -96.5q0 -42 -15 -74t-41.5 -53t-63.5 -31.5t-80 -10.5q-59 0 -97 12t-60.5 34.5t-31.5 54t-9 70.5v19h124zM155 746h144l78 -144h-106l-46 85l-48 -85h-100z" />
    <glyph glyph-name="scaron" unicode="&#x161;" horiz-adv-x="444" 
d="M147 176v-18q0 -35 18.5 -56.5t53.5 -21.5q32 0 51 16t19 48q0 26 -15 39.5t-35 21.5l-97 35q-57 20 -86 56.5t-29 93.5q0 33 11 62.5t35 51.5t61.5 35t90.5 13q94 0 139 -40t45 -113v-22h-124q0 42 -13.5 61.5t-47.5 19.5q-26 0 -45.5 -14.5t-19.5 -43.5q0 -20 12.5 -36
t47.5 -27l83 -28q65 -22 92 -57.5t27 -96.5q0 -42 -15 -74t-41.5 -53t-63.5 -31.5t-80 -10.5q-59 0 -97 12t-60.5 34.5t-31.5 54t-9 70.5v19h124zM73 746h106l46 -85l48 85h100l-78 -144h-144z" />
    <glyph glyph-name="scedilla" unicode="&#x15f;" horiz-adv-x="444" 
d="M147 176v-18q0 -35 18.5 -56.5t53.5 -21.5q32 0 51 16t19 48q0 26 -15 39.5t-35 21.5l-97 35q-57 20 -86 56.5t-29 93.5q0 33 11 62.5t35 51.5t61.5 35t90.5 13q94 0 139 -40t45 -113v-22h-124q0 42 -13.5 61.5t-47.5 19.5q-26 0 -45.5 -14.5t-19.5 -43.5q0 -20 12.5 -36
t47.5 -27l83 -28q65 -22 92 -57.5t27 -96.5q0 -63 -32.5 -103t-87.5 -55q-34 -10 -69 -11l-29 -44q9 3 16.5 4t16.5 1q16 0 31.5 -4.5t27.5 -13.5t19 -22.5t6 -31.5q0 -45 -32.5 -68.5t-93.5 -23.5q-33 0 -60.5 6t-39.5 13l19 46q11 -6 30.5 -10.5t38.5 -4.5q21 0 35.5 9
t14.5 24t-12 23t-32 9q-11 0 -18.5 -1.5t-15.5 -4.5l-22 20l49 76q-34 3 -57 10q-58 18 -79.5 59t-21.5 100v19h124z" />
    <glyph glyph-name="scommaaccent" unicode="&#x219;" horiz-adv-x="444" 
d="M147 176v-18q0 -35 18.5 -56.5t53.5 -21.5q32 0 51 16t19 48q0 26 -15 39.5t-35 21.5l-97 35q-57 20 -86 56.5t-29 93.5q0 33 11 62.5t35 51.5t61.5 35t90.5 13q94 0 139 -40t45 -113v-22h-124q0 42 -13.5 61.5t-47.5 19.5q-26 0 -45.5 -14.5t-19.5 -43.5q0 -20 12.5 -36
t47.5 -27l83 -28q65 -22 92 -57.5t27 -96.5q0 -42 -15 -74t-41.5 -53t-63.5 -31.5t-80 -10.5q-59 0 -97 12t-60.5 34.5t-31.5 54t-9 70.5v19h124zM278 -50v-97q0 -34 -8.5 -54t-22.5 -31t-31.5 -15t-34.5 -6v36q17 5 26 15.5t10 33.5h-51v118h112z" />
    <glyph glyph-name="germandbls" unicode="&#xdf;" horiz-adv-x="500" 
d="M41 0v527q0 106 51.5 153.5t160.5 47.5q96 0 146.5 -43t50.5 -128q0 -28 -4 -50t-14 -40t-27.5 -32t-43.5 -25v-2q60 -10 85.5 -60.5t25.5 -131.5q0 -37 -6.5 -76t-26 -71.5t-54.5 -53.5t-92 -21q-17 0 -36 1t-30 3v94q9 -4 21 -4q27 0 44 10t26.5 29t12.5 46t3 61
q0 55 -17 88t-63 33h-25v94h17q36 0 51 26.5t15 68.5q0 18 -3 34t-10.5 28.5t-20.5 20t-32 7.5q-41 0 -54 -31t-13 -79v-524h-138z" />
    <glyph glyph-name="tcaron" unicode="&#x165;" horiz-adv-x="410" 
d="M320 714h120l-63 -144h-90zM76 692h138v-154h80v-94h-80v-291q0 -32 9.5 -45.5t39.5 -13.5q8 0 16 0.5t15 1.5v-96l-44.5 -4t-45.5 -2q-41 0 -66 7t-38.5 23.5t-18.5 43.5t-5 68v308h-70v94h70v154z" />
    <glyph glyph-name="tcommaaccent" unicode="&#x163;" horiz-adv-x="296" 
d="M76 692h138v-154h80v-94h-80v-291q0 -32 9.5 -45.5t39.5 -13.5q8 0 16 0.5t15 1.5v-96l-44.5 -4t-45.5 -2q-41 0 -66 7t-38.5 23.5t-18.5 43.5t-5 68v308h-70v94h70v154zM250 -50v-97q0 -34 -8.5 -54t-22.5 -31t-31.5 -15t-34.5 -6v36q17 5 26 15.5t10 33.5h-51v118h112z
" />
    <glyph glyph-name="uni021B" unicode="&#x21b;" horiz-adv-x="296" 
d="M76 692h138v-154h80v-94h-80v-291q0 -32 9.5 -45.5t39.5 -13.5q8 0 16 0.5t15 1.5v-96l-44.5 -4t-45.5 -2q-41 0 -66 7t-38.5 23.5t-18.5 43.5t-5 68v308h-70v94h70v154zM250 -50v-97q0 -34 -8.5 -54t-22.5 -31t-31.5 -15t-34.5 -6v36q17 5 26 15.5t10 33.5h-51v118h112z
" />
    <glyph glyph-name="tbar" unicode="&#x167;" horiz-adv-x="296" 
d="M76 692h138v-154h80v-94h-80v-98h89v-61h-89v-132q0 -32 9.5 -45.5t39.5 -13.5q8 0 16 0.5t15 1.5v-96l-44.5 -4t-45.5 -2q-41 0 -66 7t-38.5 23.5t-18.5 43.5t-5 68v149h-81v61h81v98h-70v94h70v154z" />
    <glyph glyph-name="thorn" unicode="&#xfe;" horiz-adv-x="500" 
d="M46 714h138v-233h2q18 38 46 54.5t70 16.5q85 0 125 -66.5t40 -216.5t-40 -216.5t-125 -66.5q-39 0 -66.5 16t-49.5 48h-2v-226h-138v890zM184 269q0 -88 13.5 -132.5t59.5 -44.5q45 0 58.5 44.5t13.5 132.5t-13.5 132.5t-58.5 44.5q-46 0 -59.5 -44.5t-13.5 -132.5z" />
    <glyph glyph-name="ugrave" unicode="&#xf9;" horiz-adv-x="500" 
d="M322 63h-2q-22 -40 -57 -58.5t-80 -18.5q-66 0 -101.5 36t-35.5 117v399h138v-371q0 -42 14 -58.5t45 -16.5q73 0 73 89v357h138v-538h-132v63zM218 602l-98 144h138l54 -144h-94z" />
    <glyph glyph-name="uacute" unicode="&#xfa;" horiz-adv-x="500" 
d="M322 63h-2q-22 -40 -57 -58.5t-80 -18.5q-66 0 -101.5 36t-35.5 117v399h138v-371q0 -42 14 -58.5t45 -16.5q73 0 73 89v357h138v-538h-132v63zM254 746h138l-98 -144h-94z" />
    <glyph glyph-name="ucircumflex" unicode="&#xfb;" horiz-adv-x="500" 
d="M322 63h-2q-22 -40 -57 -58.5t-80 -18.5q-66 0 -101.5 36t-35.5 117v399h138v-371q0 -42 14 -58.5t45 -16.5q73 0 73 89v357h138v-538h-132v63zM178 746h144l78 -144h-106l-46 85l-48 -85h-100z" />
    <glyph glyph-name="utilde" unicode="&#x169;" horiz-adv-x="500" 
d="M322 63h-2q-22 -40 -57 -58.5t-80 -18.5q-66 0 -101.5 36t-35.5 117v399h138v-371q0 -42 14 -58.5t45 -16.5q73 0 73 89v357h138v-538h-132v63zM93 611q8 60 31.5 92t61.5 32q28 0 43 -7l48 -21q15 -6 30 -6q14 0 21 13t7 23h72q-5 -54 -30 -89t-63 -35q-16 0 -32 5.5
t-31.5 11.5l-29.5 11.5t-26 5.5q-25 0 -32 -36h-70z" />
    <glyph glyph-name="udieresis" unicode="&#xfc;" horiz-adv-x="500" 
d="M322 63h-2q-22 -40 -57 -58.5t-80 -18.5q-66 0 -101.5 36t-35.5 117v399h138v-371q0 -42 14 -58.5t45 -16.5q73 0 73 89v357h138v-538h-132v63zM280 733h112v-118h-112v118zM108 733h112v-118h-112v118z" />
    <glyph glyph-name="umacron" unicode="&#x16b;" horiz-adv-x="500" 
d="M322 63h-2q-22 -40 -57 -58.5t-80 -18.5q-66 0 -101.5 36t-35.5 117v399h138v-371q0 -42 14 -58.5t45 -16.5q73 0 73 89v357h138v-538h-132v63zM397 712v-76h-294v76h294z" />
    <glyph glyph-name="ubreve" unicode="&#x16d;" horiz-adv-x="500" 
d="M322 63h-2q-22 -40 -57 -58.5t-80 -18.5q-66 0 -101.5 36t-35.5 117v399h138v-371q0 -42 14 -58.5t45 -16.5q73 0 73 89v357h138v-538h-132v63zM177 745q3 -29 24 -47t50 -18t50 18t24 47h65q0 -20 -6.5 -44.5t-22.5 -46t-43 -36t-67 -14.5q-41 0 -67.5 14.5t-42.5 36
t-22.5 46t-6.5 44.5h65z" />
    <glyph glyph-name="uring" unicode="&#x16f;" horiz-adv-x="500" 
d="M322 63h-2q-22 -40 -57 -58.5t-80 -18.5q-66 0 -101.5 36t-35.5 117v399h138v-371q0 -42 14 -58.5t45 -16.5q73 0 73 89v357h138v-538h-132v63zM193 690q0 -24 16.5 -40.5t40.5 -16.5t40.5 16.5t16.5 40.5t-16.5 40.5t-40.5 16.5t-40.5 -16.5t-16.5 -40.5zM137 690
q0 24 9 44.5t24.5 35t36 22.5t43.5 8t43.5 -8t36 -22.5t24.5 -35t9 -44.5q0 -50 -33 -79t-80 -29q-48 0 -80.5 29t-32.5 79z" />
    <glyph glyph-name="uhungarumlaut" unicode="&#x171;" horiz-adv-x="500" 
d="M322 63h-2q-22 -40 -57 -58.5t-80 -18.5q-66 0 -101.5 36t-35.5 117v399h138v-371q0 -42 14 -58.5t45 -16.5q73 0 73 89v357h138v-538h-132v63zM333 746h138l-98 -144h-94zM167 746h138l-98 -144h-94z" />
    <glyph glyph-name="uogonek" unicode="&#x173;" horiz-adv-x="500" 
d="M322 63h-2q-22 -40 -57 -58.5t-80 -18.5q-66 0 -101.5 36t-35.5 117v399h138v-371q0 -42 14 -58.5t45 -16.5q73 0 73 89v357h138v-538h-64q-28 -25 -43 -42t-25 -34t-12.5 -27t-2.5 -25q0 -25 25 -25q13 0 25 3.5t32 16.5l27 -49q-26 -20 -48.5 -27.5t-54.5 -7.5
q-26 0 -43 7.5t-26.5 18.5t-13 25t-3.5 28q0 38 27.5 73.5t67.5 64.5v63z" />
    <glyph glyph-name="wcircumflex" unicode="&#x175;" horiz-adv-x="704" 
d="M7 538h138l63 -382h2l67 382h150l71 -382h2l65 382h132l-116 -538h-157l-71 382h-2l-67 -382h-160zM281 746h144l78 -144h-106l-46 85l-48 -85h-100z" />
    <glyph glyph-name="yacute" unicode="&#xfd;" horiz-adv-x="444" 
d="M46 -73q18 -3 36 -3q38 0 54.5 20t19.5 56l-151 538h144l80 -372h2l70 372h138l-130 -502q-6 -38 -28.5 -95.5t-45 -80t-54 -29.5t-79.5 -7h-56v103zM232 746h138l-98 -144h-94z" />
    <glyph glyph-name="ycircumflex" unicode="&#x177;" horiz-adv-x="444" 
d="M46 -73q18 -3 36 -3q38 0 54.5 20t19.5 56l-151 538h144l80 -372h2l70 372h138l-130 -502q-6 -38 -28.5 -95.5t-45 -80t-54 -29.5t-79.5 -7h-56v103zM158 746h144l78 -144h-106l-46 85l-48 -85h-100z" />
    <glyph glyph-name="ydieresis" unicode="&#xff;" horiz-adv-x="444" 
d="M46 -73q18 -3 36 -3q38 0 54.5 20t19.5 56l-151 538h144l80 -372h2l70 372h138l-130 -502q-6 -38 -28.5 -95.5t-45 -80t-54 -29.5t-79.5 -7h-56v103zM261 733h112v-118h-112v118zM89 733h112v-118h-112v118z" />
    <glyph glyph-name="zacute" unicode="&#x17a;" horiz-adv-x="426" 
d="M24 106l215 320h-205v112h368v-106l-215 -320h215v-112h-378v106zM222 746h138l-98 -144h-94z" />
    <glyph glyph-name="zcaron" unicode="&#x17e;" horiz-adv-x="426" 
d="M24 106l215 320h-205v112h368v-106l-215 -320h215v-112h-378v106zM69 746h106l46 -85l48 85h100l-78 -144h-144z" />
    <glyph glyph-name="zdotaccent" unicode="&#x17c;" horiz-adv-x="426" 
d="M24 106l215 320h-205v112h368v-106l-215 -320h215v-112h-378v106zM274 733v-118h-112v118h112z" />
    <glyph glyph-name="grave.cap" horiz-adv-x="222" 
d="M82 756l-98 144h138l54 -144h-94z" />
    <glyph glyph-name="acute" unicode="&#xb4;" horiz-adv-x="222" 
d="M100 746h138l-98 -144h-94z" />
    <glyph glyph-name="acute.cap" horiz-adv-x="222" 
d="M100 900h138l-98 -144h-94z" />
    <glyph glyph-name="circumflex" unicode="&#x2c6;" horiz-adv-x="222" 
d="M39 746h144l78 -144h-106l-46 85l-48 -85h-100z" />
    <glyph glyph-name="circumflex.cap" horiz-adv-x="222" 
d="M39 900h144l78 -144h-106l-46 85l-48 -85h-100z" />
    <glyph glyph-name="caron" unicode="&#x2c7;" horiz-adv-x="222" 
d="M-39 746h106l46 -85l48 85h100l-78 -144h-144z" />
    <glyph glyph-name="caron.cap" horiz-adv-x="222" 
d="M-39 900h106l46 -85l48 85h100l-78 -144h-144z" />
    <glyph glyph-name="caron.alt" horiz-adv-x="222" 
d="M79 714h120l-63 -144h-90z" />
    <glyph glyph-name="tilde" unicode="&#x2dc;" horiz-adv-x="222" 
d="M-46 611q8 60 31.5 92t61.5 32q28 0 43 -7l48 -21q15 -6 30 -6q14 0 21 13t7 23h72q-5 -54 -30 -89t-63 -35q-16 0 -32 5.5t-31.5 11.5l-29.5 11.5t-26 5.5q-25 0 -32 -36h-70z" />
    <glyph glyph-name="tilde.cap" horiz-adv-x="222" 
d="M-46 765q8 60 31.5 92t61.5 32q28 0 43 -7l48 -21q15 -6 30 -6q14 0 21 13t7 23h72q-5 -54 -30 -89t-63 -35q-16 0 -32 5.5t-31.5 11.5l-29.5 11.5t-26 5.5q-25 0 -32 -36h-70z" />
    <glyph glyph-name="dieresis" unicode="&#xa8;" horiz-adv-x="222" 
d="M141 733h112v-118h-112v118zM-31 733h112v-118h-112v118z" />
    <glyph glyph-name="dieresis.cap" horiz-adv-x="222" 
d="M141 889h112v-118h-112v118zM-31 889h112v-118h-112v118z" />
    <glyph glyph-name="macron" unicode="&#xaf;" horiz-adv-x="222" 
d="M258 712v-76h-294v76h294z" />
    <glyph glyph-name="macron.cap" horiz-adv-x="222" 
d="M258 866v-76h-294v76h294z" />
    <glyph glyph-name="uni02C9" unicode="&#x2c9;" horiz-adv-x="222" 
d="M258 712v-76h-294v76h294z" />
    <glyph glyph-name="breve" unicode="&#x2d8;" horiz-adv-x="222" 
d="M37 745q3 -29 24 -47t50 -18t50 18t24 47h65q0 -20 -6.5 -44.5t-22.5 -46t-43 -36t-67 -14.5q-41 0 -67.5 14.5t-42.5 36t-22.5 46t-6.5 44.5h65z" />
    <glyph glyph-name="breve.cap" horiz-adv-x="222" 
d="M37 899q3 -29 24 -47t50 -18t50 18t24 47h65q0 -20 -6.5 -44.5t-22.5 -46t-43 -36t-67 -14.5q-41 0 -67.5 14.5t-42.5 36t-22.5 46t-6.5 44.5h65z" />
    <glyph glyph-name="ring" unicode="&#x2da;" horiz-adv-x="222" 
d="M54 690q0 -24 16.5 -40.5t40.5 -16.5t40.5 16.5t16.5 40.5t-16.5 40.5t-40.5 16.5t-40.5 -16.5t-16.5 -40.5zM-2 690q0 24 9 44.5t24.5 35t36 22.5t43.5 8t43.5 -8t36 -22.5t24.5 -35t9 -44.5q0 -50 -33 -79t-80 -29q-48 0 -80.5 29t-32.5 79z" />
    <glyph glyph-name="ring.cap" horiz-adv-x="222" 
d="M54 844q0 -24 16.5 -40.5t40.5 -16.5t40.5 16.5t16.5 40.5t-16.5 40.5t-40.5 16.5t-40.5 -16.5t-16.5 -40.5zM-2 844q0 24 9 44.5t24.5 35t36 22.5t43.5 8t43.5 -8t36 -22.5t24.5 -35t9 -44.5q0 -50 -33 -79t-80 -29q-48 0 -80.5 29t-32.5 79z" />
    <glyph glyph-name="hungarumlaut" unicode="&#x2dd;" horiz-adv-x="222" 
d="M183 746h138l-98 -144h-94zM17 746h138l-98 -144h-94z" />
    <glyph glyph-name="hungarumlaut.cap" horiz-adv-x="222" 
d="M183 900h138l-98 -144h-94zM17 900h138l-98 -144h-94z" />
    <glyph glyph-name="dotaccent" unicode="&#x2d9;" horiz-adv-x="222" 
d="M167 733v-118h-112v118h112z" />
    <glyph glyph-name="dotaccent.cap" horiz-adv-x="222" 
d="M167 829v-118h-112v118h112z" />
    <glyph glyph-name="cedilla" unicode="&#xb8;" horiz-adv-x="222" 
d="M147 0l-38 -58q9 3 16.5 4t16.5 1q16 0 31.5 -4.5t27.5 -13.5t19 -22.5t6 -31.5q0 -45 -32.5 -68.5t-93.5 -23.5q-33 0 -60.5 6t-39.5 13l19 46q11 -6 30.5 -10.5t38.5 -4.5q21 0 35.5 9t14.5 24t-12 23t-32 9q-11 0 -18.5 -1.5t-15.5 -4.5l-22 20l57 88h52z" />
    <glyph glyph-name="ogonek" unicode="&#x2db;" horiz-adv-x="222" 
d="M234 -182q-28 -20 -53.5 -27.5t-60.5 -7.5q-29 0 -48 7.5t-29.5 18.5t-14.5 25t-4 28q0 37 33 74.5t90 63.5h67q-31 -23 -50.5 -40.5t-31 -31.5t-15.5 -26t-4 -24q0 -31 28 -31q14 0 27.5 3.5t35.5 16.5z" />
    <glyph glyph-name="commaaccent" horiz-adv-x="240" 
d="M178 -50v-97q0 -34 -8.5 -54t-22.5 -31t-31.5 -15t-34.5 -6v36q17 5 26 15.5t10 33.5h-51v118h112z" />
    <glyph glyph-name="commaaccent.alt" horiz-adv-x="240" 
d="M63 596v97q0 34 8.5 54t22.5 31t31.5 15t34.5 6v-36q-17 -5 -26 -15.5t-10 -33.5h51v-118h-112z" />
    <glyph glyph-name="ellipsis" unicode="&#x2026;" horiz-adv-x="1000" 
d="M899 156v-156h-132v156h132zM566 156v-156h-132v156h132zM233 156v-156h-132v156h132z" />
    <glyph glyph-name="uni00AD" unicode="&#xad;" horiz-adv-x="370" 
d="M326 348v-118h-282v118h282z" />
    <glyph glyph-name="exclamdown" unicode="&#xa1;" horiz-adv-x="296" 
d="M79 538h138v-132h-138v132zM79 56l19 283h100l19 -283v-232h-138v232z" />
    <glyph glyph-name="questiondown" unicode="&#xbf;" horiz-adv-x="481" 
d="M181 406v132h138v-132h-138zM445 45v-23q0 -45 -12.5 -83t-37 -65t-62 -42.5t-86.5 -15.5q-106 0 -158.5 52.5t-52.5 140.5q0 42 13.5 78t49.5 78l40 45q26 29 37.5 53t11.5 62v15h124v-39q0 -50 -14 -84.5t-48 -72.5l-38 -43q-21 -23 -29.5 -49.5t-8.5 -56.5
q0 -38 17 -61.5t51 -23.5q38 0 54.5 30.5t16.5 79.5v25h132z" />
    <glyph glyph-name="quoteleft" unicode="&#x2018;" horiz-adv-x="260" 
d="M64 523q0 40 5.5 73.5t20.5 58t40.5 40t65.5 19.5v-70q-26 -5 -39 -28t-13 -51v-16h52v-156h-132v130z" />
    <glyph glyph-name="quoteright" unicode="&#x2019;" horiz-adv-x="260" 
d="M196 584q0 -40 -5.5 -73.5t-20.5 -58t-40.5 -40t-65.5 -19.5v70q26 5 39 28t13 51v16h-52v156h132v-130z" />
    <glyph glyph-name="quotedblleft" unicode="&#x201c;" horiz-adv-x="463" 
d="M68 523q0 40 5.5 73.5t20.5 58t40.5 40t65.5 19.5v-70q-26 -5 -39 -28t-13 -51v-16h52v-156h-132v130zM263 523q0 40 5.5 73.5t20.5 58t40.5 40t65.5 19.5v-70q-26 -5 -39 -28t-13 -51v-16h52v-156h-132v130z" />
    <glyph glyph-name="quotedblright" unicode="&#x201d;" horiz-adv-x="463" 
d="M263 714h132v-130q0 -40 -5.5 -73.5t-20.5 -58t-40.5 -40t-65.5 -19.5v70q26 5 39 28t13 51v16h-52v156zM68 714h132v-130q0 -40 -5.5 -73.5t-20.5 -58t-40.5 -40t-65.5 -19.5v70q26 5 39 28t13 51v16h-52v156z" />
    <glyph glyph-name="quotesinglbase" unicode="&#x201a;" horiz-adv-x="260" 
d="M196 156v-130q0 -40 -5.5 -73.5t-20.5 -58t-40.5 -40t-65.5 -19.5v70q26 5 39 28t13 51v16h-52v156h132z" />
    <glyph glyph-name="quotedblbase" unicode="&#x201e;" horiz-adv-x="463" 
d="M68 156h132v-130q0 -40 -5.5 -73.5t-20.5 -58t-40.5 -40t-65.5 -19.5v70q26 5 39 28t13 51v16h-52v156zM263 156h132v-130q0 -40 -5.5 -73.5t-20.5 -58t-40.5 -40t-65.5 -19.5v70q26 5 39 28t13 51v16h-52v156z" />
    <glyph glyph-name="guilsinglleft" unicode="&#x2039;" horiz-adv-x="241" 
d="M46 370l149 120v-132l-79 -69l79 -69v-132l-149 120v162z" />
    <glyph glyph-name="guilsinglright" unicode="&#x203a;" horiz-adv-x="241" 
d="M46 220l79 69l-79 69v132l149 -120v-162l-149 -120v132z" />
    <glyph glyph-name="guillemotleft" unicode="&#xab;" horiz-adv-x="426" 
d="M52 370l149 120v-132l-79 -69l79 -69v-132l-149 120v162zM225 370l149 120v-132l-79 -69l79 -69v-132l-149 120v162z" />
    <glyph glyph-name="guillemotright" unicode="&#xbb;" horiz-adv-x="426" 
d="M225 220l79 69l-79 69v132l149 -120v-162l-149 -120v132zM52 220l79 69l-79 69v132l149 -120v-162l-149 -120v132z" />
    <glyph glyph-name="endash" unicode="&#x2013;" horiz-adv-x="500" 
d="M0 345h500v-112h-500v112z" />
    <glyph glyph-name="emdash" unicode="&#x2014;" horiz-adv-x="1000" 
d="M0 345h1000v-112h-1000v112z" />
    <glyph glyph-name="bullet" unicode="&#x2022;" horiz-adv-x="500" 
d="M72 357q0 37 14 69.5t38 56.5t56.5 38t69.5 14t69.5 -14t56.5 -38t38 -56.5t14 -69.5t-14 -69.5t-38 -56.5t-56.5 -38t-69.5 -14t-69.5 14t-56.5 38t-38 56.5t-14 69.5z" />
    <glyph glyph-name="periodcentered" unicode="&#xb7;" horiz-adv-x="240" 
d="M23 282q0 42 27.5 69.5t69.5 27.5t69.5 -27.5t27.5 -69.5t-27.5 -69.5t-69.5 -27.5t-69.5 27.5t-27.5 69.5z" />
    <glyph glyph-name="uni2219" unicode="&#x2219;" horiz-adv-x="240" 
d="M23 282q0 42 27.5 69.5t69.5 27.5t69.5 -27.5t27.5 -69.5t-27.5 -69.5t-69.5 -27.5t-69.5 27.5t-27.5 69.5z" />
    <glyph glyph-name="dagger" unicode="&#x2020;" 
d="M171 714h138v-198h168v-112h-168v-542h-138v542h-168v112h168v198z" />
    <glyph glyph-name="daggerdbl" unicode="&#x2021;" 
d="M171 52h-168v112h168v248h-168v112h168v190h138v-190h168v-112h-168v-248h168v-112h-168v-190h-138v190z" />
    <glyph glyph-name="section" unicode="&#xa7;" 
d="M264 218q11 -6 20.5 -12t18.5 -13q26 22 36.5 40.5t10.5 34.5q0 26 -15 44t-53 38l-96 51q-29 -17 -42 -36.5t-13 -38.5q0 -14 8.5 -29.5t25.5 -24.5zM170 37v-15q0 -38 20 -59t50 -21q35 0 50.5 21t15.5 46q0 28 -14.5 47.5t-49.5 36.5l-123 59q-57 27 -81.5 66.5
t-24.5 87.5t24 85t66 58q-60 45 -60 114q0 45 16 76t43.5 51t65 29t80.5 9q51 0 87 -12t59 -33.5t33.5 -51.5t10.5 -65h-132q0 30 -14 49q-15 19 -55 19q-29 0 -45.5 -16.5t-16.5 -40.5q0 -17 14.5 -34.5t49.5 -34.5l119 -56q46 -22 78 -60t32 -103q0 -18 -5.5 -39
t-16 -40.5t-24.5 -36t-32 -26.5q25 -20 39.5 -49.5t14.5 -74.5q0 -91 -53.5 -133t-150.5 -42q-103 0 -152.5 46.5t-49.5 127.5v15h132z" />
    <glyph glyph-name="paragraph" unicode="&#xb6;" 
d="M182 335q-90 0 -135.5 47.5t-45.5 138.5q0 57 14.5 94.5t40.5 59.5t62.5 30.5t80.5 8.5h268v-852h-106v758h-73v-758h-106v473z" />
    <glyph glyph-name="brokenbar" unicode="&#xa6;" horiz-adv-x="222" 
d="M49 728h124v-271h-124v271zM49 257h124v-271h-124v271z" />
    <glyph glyph-name="copyright" unicode="&#xa9;" horiz-adv-x="800" 
d="M29 357q0 77 29 144.5t79.5 118t118 79.5t144.5 29t144.5 -29t118 -79.5t79.5 -118t29 -144.5t-29 -144.5t-79.5 -118t-118 -79.5t-144.5 -29t-144.5 29t-118 79.5t-79.5 118t-29 144.5zM141 357q0 -54 19.5 -102.5t54 -84.5t82 -57t103.5 -21t103.5 21t82 57t54 84.5
t19.5 102.5t-19.5 102.5t-54 84.5t-82 57t-103.5 21t-103.5 -21t-82 -57t-54 -84.5t-19.5 -102.5zM595 298q-6 -38 -23 -67t-41 -48.5t-54 -30t-62 -10.5q-48 0 -86 17t-65 46.5t-41.5 69.5t-14.5 85q0 46 14 86t40 69t64 46t86 17q33 0 63.5 -10t54.5 -29t40 -48t21 -66
h-96q-8 29 -29 48t-59 19q-52 0 -78.5 -37.5t-26.5 -94.5q0 -27 7 -51t20.5 -42t33 -28.5t43.5 -10.5q37 0 60.5 19t28.5 51h100z" />
    <glyph glyph-name="registered" unicode="&#xae;" horiz-adv-x="800" 
d="M141 357q0 -54 19.5 -102.5t54 -84.5t82 -57t103.5 -21t103.5 21t82 57t54 84.5t19.5 102.5t-19.5 102.5t-54 84.5t-82 57t-103.5 21t-103.5 -21t-82 -57t-54 -84.5t-19.5 -102.5zM29 357q0 77 29 144.5t79.5 118t118 79.5t144.5 29t144.5 -29t118 -79.5t79.5 -118
t29 -144.5t-29 -144.5t-79.5 -118t-118 -79.5t-144.5 -29t-144.5 29t-118 79.5t-79.5 118t-29 144.5zM343 388h67q29 0 48 9t19 41q0 16 -7 26t-18.5 15t-25 6.5t-25.5 1.5h-58v-99zM255 557h156q78 0 116 -32t38 -92q0 -51 -28.5 -78.5t-70.5 -32.5l99 -165h-96l-94 161
h-32v-161h-88v400z" />
    <glyph glyph-name="trademark" unicode="&#x2122;" horiz-adv-x="990" 
d="M143 620h-112v94h336v-94h-112v-320h-112v320zM842 584h-2l-95 -284h-100l-95 284h-2v-284h-106v414h169l83 -250h2l83 250h169v-414h-106v284z" />
    <glyph glyph-name="currency" unicode="&#xa4;" 
d="M117 347q0 -60 33 -94.5t90 -34.5t90 34.5t33 94.5t-33 94.5t-90 34.5t-90 -34.5t-33 -94.5zM0 169l50 50q-18 27 -28.5 59.5t-10.5 68.5q0 35 10 67.5t29 60.5l-50 50l61 62l51 -50q28 19 60.5 29t67.5 10q36 0 68.5 -10.5t59.5 -28.5l51 50l61 -62l-50 -50
q19 -28 29 -60.5t10 -67.5t-10 -67.5t-29 -60.5l50 -50l-61 -62l-51 51q-27 -19 -59.5 -29.5t-68.5 -10.5q-72 0 -128 40l-51 -51z" />
    <glyph glyph-name="Euro" unicode="&#x20ac;" 
d="M433 561q-48 51 -99 51q-57 0 -78 -49q-7 -15 -11 -39.5t-6 -58.5h168l-29 -78h-142v-51h132l-29 -78h-101q3 -80 13 -108q19 -61 76 -61q53 0 129 67v-125q-77 -45 -151 -45q-202 0 -210 272h-69l29 78h38l1 51h-68l30 78h41q21 246 228 246q89 0 154 -50z" />
    <glyph glyph-name="cent" unicode="&#xa2;" 
d="M222 -14q-40 2 -74.5 14.5t-60 43.5t-40 84.5t-14.5 136.5q0 57 7 107t27.5 88.5t57.5 62.5t97 29v76h52v-76q32 -2 63 -11.5t55.5 -32t39.5 -61t15 -99.5h-132q0 15 -1.5 31.5t-5.5 30.5t-12.5 25.5t-21.5 16.5v-366q15 9 23 23.5t12 31.5t5 35t1 33h132
q0 -100 -40 -156t-133 -67v-88h-52v88zM222 452q-33 -12 -42 -57.5t-9 -123.5q0 -30 1 -60.5t5.5 -56t15 -44t29.5 -24.5v366z" />
    <glyph glyph-name="sterling" unicode="&#xa3;" 
d="M9 388h67q-45 87 -45 142q0 37 13 69.5t40 56.5t67 38t94 14q103 0 159.5 -49t58.5 -158h-132q0 23 -4 43.5t-13 36t-24 24.5t-37 9q-47 0 -65.5 -24.5t-18.5 -54.5q0 -11 6 -36t20 -54l28 -57h167v-82h-141q5 -15 5 -39q0 -44 -20 -79t-70 -77l4 -2q5 2 19.5 4.5
t25.5 2.5q10 0 24.5 -4.5t30 -10.5t31 -10.5t28.5 -4.5q16 0 43.5 10t60.5 32l44 -94q-74 -48 -149 -48q-18 0 -40 5.5t-46 12.5t-49 12.5t-47 5.5q-25 0 -46.5 -6.5t-51.5 -21.5l-41 86q52 33 84.5 79.5t32.5 97.5q0 21 -11 49h-102v82z" />
    <glyph glyph-name="florin" unicode="&#x192;" 
d="M80 428h105l17 89q10 53 25 90.5t38 61t56 34.5t79 11q18 0 38 -0.5t37 -2.5l-19 -94q-8 2 -14.5 2.5t-13.5 0.5q-24 0 -39.5 -5.5t-25.5 -19t-17 -36.5t-14 -58l-15 -73h110l-15 -82h-111l-65 -342q-8 -42 -20.5 -75.5t-35 -57t-57 -35.5t-86.5 -12q-23 0 -42 1.5
t-30 5.5l20 91q15 -4 35 -4q22 0 36 5.5t23.5 17t15 30t10.5 45.5l64 330h-105z" />
    <glyph glyph-name="yen" unicode="&#xa5;" 
d="M178 159h-142v82h142v43l-11 23h-131v82h92l-145 305h149l107 -269h2l112 269h144l-145 -305h92v-82h-131l-11 -23v-43h142v-82h-142v-159h-124v159z" />
    <glyph glyph-name="ordfeminine" unicode="&#xaa;" horiz-adv-x="314" 
d="M193 537q-8 -6 -17.5 -9.5t-17.5 -5.5q-26 -5 -37 -17t-11 -32q0 -17 7.5 -29.5t24.5 -12.5t34 10.5t17 36.5v59zM293 437q0 -23 2 -35.5t9 -27.5h-100q-5 8 -7 17.5t-4 17.5q-17 -26 -38 -34t-56 -8q-25 0 -42 8.5t-27.5 21.5t-15 29.5t-4.5 32.5q0 48 20.5 70t68.5 32
l58 12q20 5 28 13t8 21q0 37 -37 37q-20 0 -30.5 -11t-10.5 -28v-9h-94v13q0 55 38 77t99 22q43 0 69.5 -7.5t41 -20.5t19.5 -31t5 -40v-172z" />
    <glyph glyph-name="ordmasculine" unicode="&#xba;" horiz-adv-x="314" 
d="M112 537q0 -46 7.5 -76t37.5 -30q25 0 35 24.5t10 81.5t-10 82t-35 25q-30 0 -37.5 -30.5t-7.5 -76.5zM12 537q0 42 7 74t24 53.5t45 32.5t69 11q43 1 71 -9.5t44.5 -32t23 -54t6.5 -75.5q0 -42 -7 -73.5t-24 -53t-45 -32.5t-69 -11q-43 -1 -71 9.5t-44.5 32t-23 54
t-6.5 74.5z" />
    <glyph glyph-name="onesuperior" unicode="&#xb9;" horiz-adv-x="312" 
d="M115 570h-91v70h8q46 0 74 16.5t35 51.5h86v-428h-112v290z" />
    <glyph glyph-name="twosuperior" unicode="&#xb2;" horiz-adv-x="312" 
d="M0 280q0 57 22 102.5t79 85.5l50 36q29 21 39 39.5t10 41.5q0 20 -11.5 33.5t-31.5 13.5q-16 0 -26 -7t-15.5 -17.5t-7.5 -23.5t-2 -25h-106v25q0 59 37 91.5t123 32.5q81 0 116.5 -29.5t35.5 -78.5q0 -41 -13.5 -70.5t-52.5 -59.5l-57 -44q-26 -20 -38 -36t-15 -28h176
v-82h-312z" />
    <glyph glyph-name="threesuperior" unicode="&#xb3;" horiz-adv-x="312" 
d="M106 416q1 -28 11 -47.5t38 -19.5q24 0 34.5 15.5t10.5 37.5q0 10 -2 21.5t-8.5 20.5t-18.5 15t-31 6h-28v70h28q29 0 41.5 16.5t12.5 36.5q0 19 -11.5 31.5t-29.5 12.5q-28 0 -37 -18t-9 -42h-100q0 68 36 103q18 17 45.5 25t63.5 8q75 0 111.5 -26t36.5 -83
q0 -39 -18.5 -63.5t-51.5 -31.5v-2q45 -8 63.5 -34t18.5 -66q0 -21 -6 -44t-24.5 -42t-51.5 -31t-87 -12q-75 0 -109 35t-34 98v10h106z" />
    <glyph glyph-name="fraction" unicode="&#x2044;" horiz-adv-x="167" 
d="M242 725h89l-406 -756h-89z" />
    <glyph glyph-name="uni2215" unicode="&#x2215;" horiz-adv-x="167" 
d="M242 725h89l-406 -756h-89z" />
    <glyph glyph-name="onequarter" unicode="&#xbc;" horiz-adv-x="721" 
d="M91 570h-91v70h8q46 0 74 16.5t35 51.5h86v-428h-112v290zM502 725h89l-406 -756h-89zM401 168l152 260h124v-269h44v-82h-44v-77h-106v77h-170v91zM571 304h-2l-86 -145h88v145z" />
    <glyph glyph-name="onehalf" unicode="&#xbd;" horiz-adv-x="721" 
d="M409 0q0 57 22 102.5t79 85.5l50 36q29 21 39 39.5t10 41.5q0 20 -11.5 33.5t-31.5 13.5q-16 0 -26 -7t-15.5 -17.5t-7.5 -23.5t-2 -25h-106v25q0 59 37 91.5t123 32.5q81 0 116.5 -29.5t35.5 -78.5q0 -41 -13.5 -70.5t-52.5 -59.5l-57 -44q-26 -20 -38 -36t-15 -28h176
v-82h-312zM91 570h-91v70h8q46 0 74 16.5t35 51.5h86v-428h-112v290zM478 725h89l-406 -756h-89z" />
    <glyph glyph-name="threequarters" unicode="&#xbe;" horiz-adv-x="721" 
d="M106 416q1 -28 11 -47.5t38 -19.5q24 0 34.5 15.5t10.5 37.5q0 10 -2 21.5t-8.5 20.5t-18.5 15t-31 6h-28v70h28q29 0 41.5 16.5t12.5 36.5q0 19 -11.5 31.5t-29.5 12.5q-28 0 -37 -18t-9 -42h-100q0 68 36 103q18 17 45.5 25t63.5 8q75 0 111.5 -26t36.5 -83
q0 -39 -18.5 -63.5t-51.5 -31.5v-2q45 -8 63.5 -34t18.5 -66q0 -21 -6 -44t-24.5 -42t-51.5 -31t-87 -12q-75 0 -109 35t-34 98v10h106zM541 725h89l-406 -756h-89zM571 159v145h-2l-86 -145h88zM401 168l152 260h124v-269h44v-82h-44v-77h-106v77h-170v91z" />
    <glyph glyph-name="perthousand" unicode="&#x2030;" horiz-adv-x="1093" 
d="M534 725h89l-406 -756h-89zM534 181q0 -60 7 -89.5t37 -29.5t37 29.5t7 89.5q0 54 -7 82.5t-37 28.5t-37 -28.5t-7 -82.5zM428 177q0 48 6 84t22.5 60t45.5 35.5t76 11.5q46 0 75.5 -11.5t46 -35.5t22.5 -60t6 -84t-6 -84t-22.5 -60t-46 -35.5t-75.5 -11.5
q-47 0 -76 11.5t-45.5 35.5t-22.5 60t-6 84zM133 521q0 -60 7 -89.5t37 -29.5t37 29.5t7 89.5q0 54 -7 82.5t-37 28.5t-37 -28.5t-7 -82.5zM27 517q0 48 6 84t22.5 60t45.5 35.5t76 11.5q46 0 75.5 -11.5t46 -35.5t22.5 -60t6 -84t-6 -84t-22.5 -60t-46 -35.5t-75.5 -11.5
q-47 0 -76 11.5t-45.5 35.5t-22.5 60t-6 84zM766 177q0 48 6 84t22.5 60t45.5 35.5t76 11.5q46 0 75.5 -11.5t46 -35.5t22.5 -60t6 -84t-6 -84t-22.5 -60t-46 -35.5t-75.5 -11.5q-47 0 -76 11.5t-45.5 35.5t-22.5 60t-6 84zM872 181q0 -60 7 -89.5t37 -29.5t37 29.5t7 89.5
q0 54 -7 82.5t-37 28.5t-37 -28.5t-7 -82.5z" />
    <glyph glyph-name="minus" unicode="&#x2212;" horiz-adv-x="600" 
d="M47 315h506v-124h-506v124z" />
    <glyph glyph-name="plusminus" unicode="&#xb1;" horiz-adv-x="600" 
d="M47 124h506v-124h-506v124zM238 506h124v-108h191v-124h-191v-108h-124v108h-191v124h191v108z" />
    <glyph glyph-name="multiply" unicode="&#xd7;" horiz-adv-x="600" 
d="M215 253l-156 155l86 86l155 -156l155 156l86 -86l-156 -155l156 -155l-86 -86l-155 156l-155 -156l-86 86z" />
    <glyph glyph-name="divide" unicode="&#xf7;" horiz-adv-x="600" 
d="M203 41q0 42 27.5 69.5t69.5 27.5t69.5 -27.5t27.5 -69.5t-27.5 -69.5t-69.5 -27.5t-69.5 27.5t-27.5 69.5zM203 465q0 42 27.5 69.5t69.5 27.5t69.5 -27.5t27.5 -69.5t-27.5 -69.5t-69.5 -27.5t-69.5 27.5t-27.5 69.5zM47 315h506v-124h-506v124z" />
    <glyph glyph-name="notequal" unicode="&#x2260;" horiz-adv-x="593" 
d="M273 94l-78 -155l-98 50l52 105h-115v113h173l56 112h-229v113h286l78 153l99 -49l-53 -104h115v-113h-172l-56 -112h228v-113h-286z" />
    <glyph glyph-name="approxequal" unicode="&#x2248;" horiz-adv-x="593" 
d="M567 457q-3 -35 -13 -67t-28.5 -56t-46.5 -38.5t-68 -14.5q-28 0 -61.5 10.5t-67 22.5l-64.5 22.5t-54 10.5q-28 0 -43 -20.5t-19 -45.5h-75q3 33 12.5 64.5t27.5 56t45.5 39.5t65.5 15q30 0 62.5 -10t65.5 -21.5t65 -21.5t60 -10q29 0 43 19t19 45h74v0zM565 244
q-3 -34 -12.5 -66t-27.5 -56.5t-45 -39t-66 -14.5q-29 0 -64 10.5t-69.5 23l-66 23t-52.5 10.5q-27 0 -42.5 -21.5t-19.5 -45.5h-75q3 33 12.5 65t28 56.5t45.5 40t65 15.5q31 0 63 -10t64 -22t64 -22t63 -10q28 0 42 18.5t19 44.5h74v0z" />
    <glyph glyph-name="lessequal" unicode="&#x2264;" horiz-adv-x="593" 
d="M34 276v113l525 174v-118l-370 -112l370 -109v-118zM34 -38v113h525v-113h-525z" />
    <glyph glyph-name="greaterequal" unicode="&#x2265;" horiz-adv-x="593" 
d="M34 106v118l370 109l-370 112v118l525 -174v-113zM34 -38v113h525v-113h-525z" />
    <glyph glyph-name="logicalnot" unicode="&#xac;" horiz-adv-x="600" 
d="M429 300h-382v124h506v-326h-124v202z" />
    <glyph glyph-name="Delta" unicode="&#x2206;" horiz-adv-x="689" 
d="M9 0l267 712h122l283 -712h-672zM336 576l-168 -467h348z" />
    <glyph glyph-name="uni0394" unicode="&#x394;" horiz-adv-x="689" 
d="M9 0l267 712h122l283 -712h-672zM336 576l-168 -467h348z" />
    <glyph glyph-name="Omega" unicode="&#x2126;" horiz-adv-x="761" 
d="M425 0v192q77 18 115 73t38 132q0 44 -14.5 83t-41 68t-64 46t-82.5 17q-46 0 -83.5 -17t-64.5 -46.5t-41.5 -68.5t-14.5 -83q0 -78 38 -131t114 -73v-192h-277v102h180v39q-45 13 -79 39t-56.5 61t-34 77t-11.5 87q0 70 26 128t70.5 100t104.5 65t128 23
q69 0 128.5 -22.5t104 -63.5t70 -99t25.5 -128q0 -45 -11 -88t-33.5 -78.5t-57 -62t-80.5 -38.5v-39h182v-102h-278z" />
    <glyph glyph-name="uni03A9" unicode="&#x3a9;" horiz-adv-x="761" 
d="M425 0v192q77 18 115 73t38 132q0 44 -14.5 83t-41 68t-64 46t-82.5 17q-46 0 -83.5 -17t-64.5 -46.5t-41.5 -68.5t-14.5 -83q0 -78 38 -131t114 -73v-192h-277v102h180v39q-45 13 -79 39t-56.5 61t-34 77t-11.5 87q0 70 26 128t70.5 100t104.5 65t128 23
q69 0 128.5 -22.5t104 -63.5t70 -99t25.5 -128q0 -45 -11 -88t-33.5 -78.5t-57 -62t-80.5 -38.5v-39h182v-102h-278z" />
    <glyph glyph-name="mu" unicode="&#xb5;" horiz-adv-x="500" 
d="M316 538h138v-538h-132v63h-2q-22 -40 -51.5 -58.5t-54.5 -18.5q-11 0 -18 2.5t-12 5.5v-170h-138v714h138v-371q0 -42 14 -58.5t45 -16.5q73 0 73 89v357z" />
    <glyph glyph-name="uni03BC" unicode="&#x3bc;" horiz-adv-x="500" 
d="M316 538h138v-538h-132v63h-2q-22 -40 -51.5 -58.5t-54.5 -18.5q-11 0 -18 2.5t-12 5.5v-170h-138v714h138v-371q0 -42 14 -58.5t45 -16.5q73 0 73 89v357z" />
    <glyph glyph-name="pi" unicode="&#x3c0;" horiz-adv-x="597" 
d="M574 14q-23 -11 -43 -16.5t-45 -5.5q-34 0 -55 10t-32.5 28t-15.5 42t-4 53v254h-196v-379h-112v379h-70v106h570v-106h-79v-228q0 -11 0.5 -22.5t4 -20.5t11 -15t22.5 -6q11 0 22 3t22 8v-84v0z" />
    <glyph glyph-name="degree" unicode="&#xb0;" horiz-adv-x="400" 
d="M128 560q0 -30 21 -51t51 -21t51 21t21 51t-21 51t-51 21t-51 -21t-21 -51zM52 560q0 31 11.5 58t31.5 47t47 31.5t58 11.5t58 -11.5t47 -31.5t31.5 -47t11.5 -58t-11.5 -58t-31.5 -47t-47 -31.5t-58 -11.5t-58 11.5t-47 31.5t-31.5 47t-11.5 58z" />
    <glyph glyph-name="afii61289" unicode="&#x2113;" horiz-adv-x="500" 
d="M449 51q-75 -65 -165 -65q-75 0 -116.5 40t-41.5 104v53l-56 -51h-2l-45 70l102 85v241q0 42 13 77.5t35.5 61t54 40t69.5 14.5q33 0 59.5 -10.5t45.5 -30t29.5 -46.5t10.5 -60q0 -77 -47 -150.5t-142 -156.5v-117q0 -20 5.5 -33.5t14.5 -21.5t20.5 -11.5t22.5 -3.5
q19 0 41.5 9t46.5 28h2l43 -66v0zM337 567q0 29 -11 49t-29 20t-31 -22.5t-13 -61.5v-177q44 48 64 97t20 95z" />
    <glyph glyph-name="estimated" unicode="&#x212e;" horiz-adv-x="600" 
d="M157 259v-181q59 -59 145 -59q63 0 109 28.5t84 91.5l35 -21q-23 -36 -46.5 -61.5t-51 -42t-59.5 -24t-71 -7.5q-59 0 -106.5 21.5t-81.5 59t-52 87.5t-18 108t18 108.5t52 87.5t81.5 58.5t106.5 21.5q58 0 105.5 -20.5t81.5 -57t53 -87t19 -111.5h-404zM448 295v145
q-63 60 -147 60t-144 -60v-145h291z" />
    <glyph glyph-name="infinity" unicode="&#x221e;" horiz-adv-x="823" 
d="M778 265q0 -39 -12 -73t-34 -59.5t-54.5 -40t-72.5 -14.5q-31 0 -58 9.5t-50.5 25t-44.5 36t-40 42.5l-41.5 -42.5t-43 -36t-48.5 -24.5t-59 -9q-41 0 -73 14t-55 39t-35 58.5t-12 72.5t11.5 72t33.5 58t54 39t72 14q33 0 60.5 -9.5t51 -26t44 -38t40.5 -45.5
q19 23 39.5 45t44 38.5t51 26.5t59.5 10q40 0 72 -14t54 -38.5t34 -57.5t12 -72zM684 262q0 35 -21.5 60t-58.5 25q-20 0 -38.5 -8.5t-35 -21.5t-31.5 -28.5l-27 -28.5q13 -15 28 -29.5t32 -26t35.5 -18.5t39.5 -7q37 0 57 24t20 59zM352 260q-12 13 -28 28.5t-33.5 28
t-36.5 21t-38 8.5q-35 0 -55.5 -26t-20.5 -59q0 -36 21 -58.5t58 -22.5q19 0 38 7.5t36 19t32 25.5t27 28z" />
    <glyph glyph-name="partialdiff" unicode="&#x2202;" horiz-adv-x="560" 
d="M518 359q0 -64 -10.5 -130t-39 -120t-78 -88t-128.5 -34q-50 0 -91 17t-70 48t-45 72.5t-16 91.5q0 48 16 88.5t44.5 70t68.5 46.5t88 17q41 0 75 -13.5t66 -39.5l1 26q1 35 -6.5 73.5t-24.5 71t-46 54t-72 21.5q-36 0 -65 -14t-56 -36l-62 72q42 32 82.5 50t95.5 18
q78 0 130 -32t84 -83.5t45.5 -116t13.5 -130.5zM396 289q-25 29 -54 45.5t-68 16.5q-31 0 -53.5 -11.5t-37.5 -31t-22 -45t-7 -53.5q0 -26 6.5 -50.5t20 -43.5t35 -30t50.5 -11q35 0 60.5 18.5t41 47t23 62t6.5 62.5z" />
    <glyph glyph-name="integral" unicode="&#x222b;" horiz-adv-x="614" 
d="M493 708q0 -23 -15.5 -39t-38.5 -16q-24 0 -35 12t-16 26l-9.5 26t-14.5 12q-11 0 -14.5 -9.5t-3.5 -18.5q0 -36 2 -72.5t2 -72.5l1 -470v-95t-12.5 -97.5t-44 -76.5t-93.5 -31q-17 0 -37 4.5t-37 14t-28 24.5t-11 36q0 23 15.5 38t38.5 15q24 0 34.5 -12t16 -26t9 -26
t14.5 -12q13 0 15.5 12t2.5 21q0 28 -2 55.5t-2 56.5l-1 529v55.5t3.5 60.5t12.5 58t27 48q43 47 110 47q17 0 36.5 -4.5t36 -13.5t27.5 -23.5t11 -35.5z" />
    <glyph glyph-name="radical" unicode="&#x221a;" horiz-adv-x="545" 
d="M344 -214h-110l-151 313l-51 -24l-44 93l155 71l126 -269l166 816h122z" />
    <glyph glyph-name="summation" unicode="&#x2211;" horiz-adv-x="654" 
d="M25 -214v95l301 411l-288 400v94h579v-109h-421l272 -384l-290 -398h451v-109h-604z" />
    <glyph glyph-name="product" unicode="&#x220f;" horiz-adv-x="743" 
d="M564 -214v891h-385v-891h-119v1000h623v-1000h-119z" />
    <glyph glyph-name="lozenge" unicode="&#x25ca;" horiz-adv-x="593" 
d="M348 -35h-105l-178 391l179 391h104l180 -391zM296 635l-116 -279l116 -280l117 280z" />
    <glyph glyph-name="uniF8FF" unicode="&#xf8ff;" horiz-adv-x="512" 
d="M222 117v67h56v-67h-56zM225 234l-2 17q0 55 13 81t46 59q32 31 41 47.5t9 35.5q0 36 -22.5 60.5t-53.5 24.5t-53.5 -22t-28.5 -73l-50 8q7 71 44 104t91 33q53 0 88.5 -36t35.5 -95q0 -32 -12.5 -58.5t-50.5 -61.5q-37 -33 -43 -52t-6 -72h-46zM462 50v617h-412v-617
h412zM512 718v-718h-512v718h512z" />
    </font>
</defs>
</svg>
